<svg width="546" height="484" viewBox="0 0 546 484" fill="none" xmlns="http://www.w3.org/2000/svg">
<g clip-path="url(#clip0_731_411)">
<path d="M59.0281 327.108C28.8511 265.939 21.6455 189.444 21.4542 86.393L237.937 32.6256L454.42 86.393C454.228 189.444 447.023 265.939 416.846 327.108C386.64 388.336 333 434.967 237.937 477.008C142.873 434.967 89.2341 388.336 59.0281 327.108Z" fill="white" stroke="#56B84E" stroke-width="11"/>
<mask id="mask0_731_411" style="mask-type:alpha" maskUnits="userSpaceOnUse" x="1" y="-71" width="545" height="555">
<path d="M1 69.9617L15.9501 82.0931C15.9501 292.582 43.6758 397.826 237.937 483.017C375.75 422.542 429.751 351.971 449.504 240.888C457.568 195.44 546 254.11 546 193V-69.642L1 -71V69.9617Z" fill="#C4C4C4"/>
</mask>
<g mask="url(#mask0_731_411)">
<g filter="url(#filter0_d_731_411)">
<path d="M349.972 417.634C340.459 425.058 330.718 432.165 322.02 440.494C321.522 440.992 320.978 441.49 320.48 441.987C311.555 450.769 302.494 459.46 293.434 468.061C263.126 496.805 232.048 524.734 200.245 551.804C196.031 555.425 192.181 556.557 187.56 552.845C182.44 548.726 177.548 544.29 173.017 539.537C172.428 538.903 171.839 538.269 171.25 537.635C165.678 531.57 171.16 523.105 175.192 517.944C191.456 497.303 207.72 476.797 224.482 456.563C242.014 435.379 259.773 414.33 277.713 393.462C286.683 383.051 295.699 372.639 304.76 362.319C306.119 360.78 307.478 359.014 308.927 357.203C314.545 349.961 320.888 341.632 329.631 340.093C341.546 337.965 355.726 339.006 367.641 340.545C367.686 340.545 367.731 340.545 367.777 340.545C375.841 341.632 379.42 348.15 381.232 355.393C382.092 358.924 382.545 362.635 382.863 365.94C385.354 390.61 367.641 404.099 349.972 417.634Z" fill="#56B84E"/>
<path d="M344.083 363.903C334.433 388.709 327.049 414.375 321.975 440.494C321.476 440.992 320.933 441.489 320.434 441.987C281.655 479.966 241.561 516.632 200.199 551.804C195.986 555.425 192.135 556.557 187.514 552.845C182.395 548.725 177.502 544.289 172.972 539.536C174.965 538.903 177.411 538.495 179.812 538.043C198.84 534.512 217.55 519.167 231.685 506.673C240.293 499.068 248.266 490.739 255.696 482.003C273.183 461.407 287.589 438.366 300.999 414.918C306.436 405.367 311.827 395.68 318.849 387.215C326.188 378.343 335.158 371.1 344.083 363.903Z" fill="#2F9227"/>
<path d="M392.965 568.326C393.327 571.902 390.881 573.758 387.619 575.07C382.228 577.243 376.746 579.054 371.129 580.548C367.187 581.589 361.253 583.807 357.447 581.408C356.405 580.729 355.635 579.733 354.865 578.782C344.037 564.795 333.708 550.446 323.923 535.734C323.016 534.331 322.065 532.973 321.159 531.569C311.645 517.129 298.915 501.105 294.747 484.085C293.479 478.879 293.116 473.493 293.388 468.061C293.886 457.559 296.559 446.876 299.096 437.008C303.581 419.49 310.105 402.56 317.535 386.129C321.204 378.026 325.1 369.968 329.087 362.002C329.54 361.096 330.039 359.874 330.582 358.516C332.893 352.858 336.064 344.529 340.594 343.126C341.546 342.809 342.588 342.763 343.584 342.673C351.648 342.13 359.667 341.451 367.64 340.545C375.387 339.64 383.134 338.508 390.836 337.06C393.69 336.517 396.68 335.928 399.534 336.562C401.527 336.969 403.249 338.191 404.698 339.957C409.772 345.977 411.902 358.154 412.4 364.174C412.4 364.31 412.4 364.446 412.445 364.627C413.895 385.766 398.764 406.951 389.159 424.786C387.664 427.547 386.169 430.309 384.629 433.07C374.979 450.497 364.832 467.653 354.14 484.447C353.687 485.126 353.234 485.896 353.234 486.665C353.234 486.71 353.234 486.756 353.234 486.801C353.279 487.435 353.596 488.023 353.913 488.612C361.298 501.784 368.365 515.092 375.07 528.627C378.423 535.372 381.639 542.207 384.765 549.042C387.347 554.746 391.425 561.309 392.784 567.375C392.874 567.647 392.92 568.009 392.965 568.326Z" fill="#56B84E"/>
<path d="M412.4 364.129C411.675 363.767 410.905 363.45 410.18 363.133C400.984 359.059 391.243 356.57 381.231 355.393C369.815 354.08 358.127 354.442 346.756 356.072C341.364 356.841 335.973 357.882 330.582 358.516C328.226 358.788 325.871 358.969 323.47 359.014C318.803 359.105 313.593 358.742 308.882 357.203C314.499 349.961 320.842 341.632 329.586 340.093C341.5 337.965 355.68 339.006 367.595 340.545C375.342 339.64 383.089 338.508 390.79 337.06C393.645 336.517 396.635 335.928 399.489 336.562C401.482 336.969 403.204 338.191 404.653 339.957C409.818 345.932 411.902 358.109 412.4 364.129Z" fill="#2F9227"/>
<path d="M315.27 207.236C317.625 203.66 319.573 199.812 321.068 195.783C325.236 184.467 327.683 172.652 326.233 160.566C326.006 158.71 325.735 156.764 325.327 154.862C324.24 152.78 322.88 150.879 321.295 149.114C320.208 147.937 319.03 146.85 317.58 146.262C315.405 145.357 312.959 145.628 310.649 145.99C307.659 146.443 304.714 146.986 301.679 146.896C301.497 146.896 301.316 146.896 301.09 146.85C297.737 146.669 294.475 145.764 291.123 145.357C284.327 144.496 277.169 145.809 271.28 149.34C265.39 152.871 256.013 163.508 256.013 163.508C256.013 163.508 259.365 179.397 262.672 185.417C264.394 188.495 266.568 191.302 268.969 193.837C271.053 196.01 273.409 197.956 275.72 199.903C277.622 201.487 279.888 201.758 282.107 202.664C287.272 204.837 291.893 208.548 297.556 209.363C302.177 209.997 306.798 208.548 311.192 207.055C312.642 206.738 314.001 207.009 315.27 207.236Z" fill="#443100"/>
<path d="M328.997 220.137C323.56 225.614 316.719 229.598 309.29 231.68C306.934 232.314 304.941 232.902 302.675 233.807C300.909 230.096 299.187 226.384 297.42 222.627C296.016 219.639 294.611 216.651 293.207 213.709C295.336 209.771 297.058 205.923 298.915 201.849C302.54 193.882 306.164 185.87 308.384 177.451C310.739 184.558 313.729 191.393 316.946 198.137C319.347 203.162 321.884 208.141 324.421 213.121C325.735 215.61 327.185 217.919 328.997 220.137Z" fill="#966C00"/>
<path d="M316.946 198.092C316.493 199.178 315.949 200.265 315.451 201.351C313.911 204.475 312.28 207.553 310.332 210.45C307.07 215.339 302.811 220.001 297.42 222.581C296.016 219.594 294.611 216.606 293.207 213.664C295.336 209.725 297.058 205.878 298.915 201.804C302.54 193.837 306.164 185.825 308.384 177.405C310.739 184.467 313.729 191.347 316.946 198.092Z" fill="#784F00"/>
<path d="M312.506 180.529C314.047 188.451 313.005 197.051 310.649 204.701C308.157 212.668 298.825 220.544 289.673 219.368C281.609 218.326 277.396 212.623 274.134 206.195C270.284 198.635 266.976 190.85 263.669 183.064C262.174 179.578 260.679 176.002 259.909 172.336C259.637 170.887 259.456 169.393 259.456 167.9C259.456 159.39 263.624 151.785 270.102 146.896C274.905 143.275 281.02 141.057 287.635 141.057C290.761 141.057 293.751 141.555 296.56 142.415C303.944 144.768 310.015 149.974 313.231 156.628C314.907 160.069 315.814 163.871 315.814 167.854C315.859 172.426 314.636 176.727 312.506 180.529Z" fill="#966C00"/>
<path d="M313.276 156.583C312.868 157.171 312.37 157.76 311.691 158.077C310.694 158.575 309.471 158.348 308.383 158.212C302.675 157.488 296.831 158.348 291.576 160.657C286.593 162.875 282.289 166.315 277.668 169.257C275.901 170.389 274.089 171.43 272.095 172.019C270.374 172.471 268.607 172.607 266.84 172.652C264.575 172.698 262.265 172.652 259.999 172.29C259.728 170.842 259.546 169.348 259.546 167.854C259.546 159.344 263.714 151.739 270.193 146.851C271.597 146.398 273.001 145.99 274.451 145.628C279.389 144.406 284.373 143.546 289.447 142.958C291.848 142.686 294.249 142.46 296.65 142.369C303.989 144.723 310.014 149.883 313.276 156.583Z" fill="#784F00"/>
<path d="M516.417 153.641C516.417 153.731 516.417 153.777 516.372 153.822C516.281 154.275 515.964 154.591 515.601 154.818C515.556 154.863 515.466 154.908 515.42 154.908C515.375 154.908 515.375 154.954 515.33 154.954C514.922 155.135 514.424 155.18 513.925 155.135C513.699 155.089 513.427 155.044 513.246 154.954C512.113 154.41 511.343 153.279 510.663 152.238C509.214 150.019 507.583 147.892 505.861 145.855C505.091 144.95 504.276 144.044 503.415 143.139C503.052 142.732 501.784 141.736 500.923 140.785C500.289 140.106 499.881 139.472 500.108 139.156C500.47 138.612 502.373 138.567 503.007 138.431C504.004 138.25 505 138.114 505.997 138.024C506.224 137.979 506.495 137.979 506.722 138.069C506.767 138.069 506.767 138.069 506.813 138.114C507.084 138.205 507.311 138.431 507.492 138.658C507.719 138.929 507.945 139.201 508.172 139.472C508.217 139.563 508.308 139.608 508.353 139.699C509.893 141.6 511.298 143.592 512.611 145.629C512.702 145.764 512.793 145.9 512.883 146.081C514.016 147.937 515.058 149.838 515.964 151.785C516.054 151.921 516.1 152.102 516.19 152.238C516.326 152.735 516.462 153.188 516.417 153.641Z" fill="#966C00"/>
<path d="M515.601 154.818C515.556 154.863 515.465 154.908 515.42 154.908C515.375 154.908 515.375 154.954 515.33 154.954C514.922 155.135 514.423 155.18 513.925 155.135C513.744 154.818 513.517 154.456 513.336 154.139C512.068 152.011 510.844 149.884 509.576 147.711C509.304 147.213 508.172 145.991 508.489 145.357C508.942 144.406 510.482 145.312 510.89 145.81C511.162 146.081 511.388 146.443 511.569 146.806C513.155 149.386 514.65 152.011 515.601 154.818Z" fill="#784F00"/>
<path d="M520.177 155.361C519.86 156.583 518.184 157.036 517.051 156.492C516.372 156.175 515.828 155.632 515.33 154.999C515.013 154.591 514.741 154.184 514.469 153.776C512.566 150.925 510.482 148.209 508.172 145.674C507.855 145.357 507.583 145.04 507.266 144.723C506.632 144.044 503.415 141.6 503.959 140.74C504.004 140.694 504.004 140.649 504.095 140.604C504.638 140.196 506.314 140.106 506.858 140.015C507.356 139.925 507.9 139.834 508.398 139.789C508.489 139.789 508.625 139.744 508.715 139.744C508.897 139.699 509.078 139.699 509.259 139.699C509.44 139.653 509.667 139.653 509.848 139.653C510.12 139.608 510.392 139.608 510.664 139.699C510.935 139.789 511.162 140.015 511.343 140.242C512.159 141.192 512.883 142.143 513.654 143.094C514.378 144.044 515.058 144.995 515.692 145.991C516.553 147.258 517.323 148.571 518.048 149.883C518.456 150.653 518.909 151.423 519.271 152.237C519.452 152.645 519.634 153.007 519.86 153.414C519.951 153.55 519.996 153.731 520.087 153.867C520.177 154.32 520.313 154.817 520.177 155.361Z" fill="#966C00"/>
<path d="M519.181 152.147C518.184 151.423 517.232 150.698 516.372 149.883C514.152 147.801 512.34 145.266 509.984 143.32L510.346 143.501C510.346 143.41 510.346 143.365 510.346 143.275C510.482 143.003 510.799 142.912 511.071 142.867C511.887 142.731 512.747 142.867 513.563 143.048C514.288 143.999 514.967 144.949 515.602 145.945C516.462 147.213 517.232 148.525 517.957 149.838C518.365 150.562 518.773 151.377 519.181 152.147Z" fill="#784F00"/>
<path d="M527.109 154.184C526.429 154.999 525.07 154.818 524.119 154.365C521.763 153.324 519.906 151.468 517.958 149.793C517.776 149.657 517.64 149.521 517.459 149.386C516.01 148.163 514.469 147.077 512.838 146.081C512.566 145.9 512.295 145.764 512.068 145.629C510.573 144.769 509.033 143.999 507.447 143.365C506.586 143.003 505.635 142.641 504.91 142.053C504.412 141.6 504.14 141.102 504.049 140.559C503.823 139.291 504.729 138.114 506.496 138.703C507.085 138.884 507.628 139.246 508.172 139.472C508.353 139.563 508.489 139.608 508.67 139.653C508.852 139.699 508.987 139.744 509.169 139.789C509.169 139.744 509.169 139.653 509.169 139.608C509.259 139.02 509.848 138.612 510.437 138.522C511.117 138.431 511.751 138.658 512.34 138.929C513.654 139.563 514.832 140.423 516.01 141.283C518.275 142.958 520.495 144.768 522.533 146.715C523.938 148.028 525.206 149.431 526.384 150.925C526.565 151.151 526.746 151.377 526.882 151.604C527.064 151.875 527.199 152.147 527.29 152.464C527.562 153.052 527.517 153.731 527.109 154.184Z" fill="#966C00"/>
<path d="M503.46 143.093C503.958 143.636 504.457 144.18 504.955 144.723C508.172 144.497 511.524 144.949 514.695 145.402C516.643 145.673 518.591 146.036 520.494 146.443C521.219 146.534 521.899 146.579 522.623 146.669C520.585 144.723 518.365 142.957 516.1 141.237C514.922 140.377 513.744 139.517 512.43 138.884C511.841 138.612 511.162 138.34 510.527 138.476C509.938 138.567 509.35 139.019 509.259 139.563C509.078 139.563 508.896 139.608 508.715 139.608C508.534 139.562 508.353 139.472 508.217 139.427C507.99 139.155 507.764 138.884 507.537 138.612C507.356 138.386 507.13 138.159 506.858 138.069C506.813 138.069 506.813 138.069 506.767 138.023C505.906 138.205 505.091 138.431 504.276 138.702C503.143 139.019 501.92 139.427 501.24 140.377C501.15 140.513 501.059 140.649 501.014 140.785C501.784 141.735 503.052 142.731 503.46 143.093Z" fill="#784F00"/>
<path d="M530.642 142.143C528.377 143.275 525.568 143.275 523.077 143.365C518.999 143.456 514.877 143.546 510.799 143.637C507.447 143.727 503.46 143.048 500.878 145.674C500.606 145.945 500.334 146.262 500.244 146.67C500.062 147.303 500.38 147.937 500.787 148.48C502.282 150.336 504.276 151.423 506.45 152.328C508.353 153.143 510.346 154.093 511.162 156.13C511.252 156.311 511.252 156.447 511.298 156.628C511.841 158.575 509.984 159.299 508.398 159.118C502.328 158.484 496.393 156.674 491.002 153.867C490.05 153.369 489.099 152.826 488.148 152.6C487.287 152.418 486.426 152.509 485.52 153.097C485.248 153.279 484.931 153.505 484.569 153.776C482.892 155.044 480.718 157.036 478.589 158.982C476.097 161.245 473.605 163.554 472.02 164.731C468.758 167.175 469.301 166.044 465.813 168.171C463.548 169.529 461.69 168.352 460.195 166.179C457.93 162.875 456.571 157.307 456.073 155.089C455.937 154.41 455.801 153.776 455.846 153.097C455.892 152.826 455.982 152.554 456.073 152.328C456.616 151.287 457.84 150.698 458.791 150.065C460.15 149.114 461.509 148.163 462.914 147.213C463.638 146.715 464.363 146.262 465.088 145.81C467.172 144.452 469.301 143.184 471.521 142.007C477.32 138.929 483.617 136.62 490.232 136.213C496.71 135.806 503.37 136.711 509.848 137.164C516.598 137.616 523.303 138.024 530.053 138.476C532.319 138.612 532.364 141.283 530.642 142.143Z" fill="#966C00"/>
<path d="M478.589 158.982C476.097 161.245 473.605 163.554 472.02 164.731C468.758 167.175 469.301 166.044 465.813 168.171C463.548 169.529 461.69 168.352 460.195 166.179C459.018 163.871 457.976 161.426 457.251 158.937C456.617 156.764 456.163 154.546 456.118 152.328C456.662 151.287 457.885 150.698 458.836 150.065C460.195 149.114 461.555 148.163 462.959 147.213C463.684 146.715 464.409 146.262 465.134 145.81C465.405 146.308 465.677 146.76 465.994 147.258C468.078 150.517 470.751 153.46 473.832 155.859C475.327 156.99 476.912 158.077 478.589 158.982Z" fill="#784F00"/>
<path d="M488.148 152.599C487.287 152.418 486.426 152.509 485.52 153.097C485.248 153.278 484.931 153.505 484.569 153.776C483.617 151.603 484.931 148.571 486.018 146.669C486.245 148.797 487.015 150.834 488.148 152.599Z" fill="#784F00"/>
<path d="M264.167 194.652C264.122 194.923 264.032 195.24 263.76 195.376C263.352 195.602 262.854 195.286 262.537 194.923C260.181 192.253 259.909 188.36 258.187 185.327C257.78 183.335 257.78 181.208 258.278 179.216C258.323 178.99 258.369 178.763 258.459 178.537C258.64 177.903 258.958 177.179 259.592 176.953C260 176.817 260.498 176.953 260.86 177.179C261.857 177.767 262.265 178.944 262.627 180.031C263.397 182.52 264.077 185.101 264.394 187.681C264.666 189.989 264.666 192.343 264.167 194.652Z" fill="#966C00"/>
<path d="M264.167 194.652C264.122 194.924 264.032 195.241 263.76 195.376C263.352 195.603 262.854 195.286 262.537 194.924C260.181 192.253 259.909 188.36 258.187 185.327C257.78 183.336 257.78 181.208 258.278 179.216C258.731 180.122 259.275 181.027 259.864 181.842C261.223 183.879 262.808 185.78 264.439 187.681C264.666 189.99 264.666 192.344 264.167 194.652Z" fill="#784F00"/>
<path d="M256.013 186.187C256.013 187.138 255.877 188.767 254.653 188.903C253.34 189.039 253.068 187.636 252.887 186.73C252.252 183.698 251.21 180.755 249.761 177.994C249.036 176.636 248.266 175.368 247.496 174.01C245.729 170.887 244.234 167.673 243.056 164.278C242.92 163.961 242.829 163.599 242.875 163.282C242.965 162.603 243.781 162.151 244.46 162.196C244.551 162.196 244.596 162.196 244.641 162.241C245.276 162.377 245.819 162.739 246.318 163.147C246.68 163.463 246.997 163.78 247.314 164.097C248.945 165.817 250.168 167.945 251.256 170.027C253.838 175.052 256.103 180.484 256.013 186.187Z" fill="#966C00"/>
<path d="M253.929 182.34C251.754 175.324 248.039 168.941 244.732 162.423C244.687 162.332 244.642 162.287 244.642 162.196C245.276 162.332 245.819 162.694 246.318 163.102C246.68 163.418 246.997 163.735 247.315 164.052C247.632 164.55 247.903 165.003 248.221 165.501C248.719 166.316 249.217 167.085 249.625 167.945C250.169 168.986 250.576 170.073 251.029 171.159C252.434 174.871 253.793 178.402 253.929 182.34Z" fill="#784F00"/>
<path d="M257.236 185.599C257.236 185.961 257.236 186.323 257.009 186.64C256.511 187.409 255.061 187.274 254.2 186.957C254.155 184.92 253.883 182.928 253.43 180.936C251.98 174.871 248.945 169.122 246.136 163.554C245.774 162.875 245.502 161.924 246.136 161.517C246.318 161.381 246.589 161.336 246.816 161.336C247.722 161.336 248.537 161.743 249.217 162.332C249.942 162.966 250.576 163.826 251.12 164.64C251.663 165.455 252.207 166.27 252.615 167.13C253.566 169.122 253.793 171.385 254.336 173.513C254.382 173.603 254.382 173.739 254.427 173.829C255.378 177.813 257.236 181.57 257.236 185.599Z" fill="#966C00"/>
<path d="M254.336 178.265C253.883 176.183 253.476 174.056 253.023 171.973C252.796 170.887 252.57 169.846 252.253 168.805C251.799 167.402 251.211 166.044 250.486 164.731C250.123 164.052 249.716 163.418 249.353 162.784C249.262 162.649 249.217 162.513 249.172 162.377C249.897 163.011 250.531 163.871 251.075 164.686C251.618 165.5 252.162 166.315 252.57 167.175C253.521 169.167 253.748 171.43 254.291 173.558C254.336 173.648 254.336 173.784 254.382 173.875C254.246 175.323 254.155 176.817 254.336 178.265Z" fill="#784F00"/>
<path d="M267.882 206.014C267.792 206.648 267.656 207.281 267.475 207.915C267.112 209.092 266.614 210.224 266.07 211.31C265.572 212.306 265.028 213.347 264.575 214.388C264.122 215.474 263.669 216.516 263.216 217.602C262.219 219.911 261.268 222.264 260.271 224.573C259.456 226.474 258.595 228.466 256.964 229.824C255.605 230.956 253.43 231.137 252.57 229.281C248.538 226.882 244.868 223.939 241.652 220.59C240.927 219.82 240.927 218.643 241.652 217.919C242.376 217.195 243.101 216.425 243.826 215.701C243.781 215.248 243.917 214.75 244.324 214.298C246.046 212.351 247.768 210.359 249.489 208.413C251.029 206.648 252.57 204.882 254.11 203.117C253.068 197.232 252.615 191.347 252.434 185.372C252.434 185.282 252.434 185.191 252.434 185.101C252.434 184.512 252.524 183.833 253.023 183.516C253.204 183.381 253.43 183.335 253.521 183.154C253.657 182.973 253.657 182.747 253.612 182.521C253.612 182.294 253.566 182.068 253.566 181.842C253.566 181.706 253.566 181.57 253.521 181.434C253.476 180.484 253.43 179.533 253.385 178.628C253.295 177.134 253.204 175.685 253.159 174.192C253.113 173.558 253.068 172.969 253.068 172.336C253.023 171.476 252.977 170.661 252.932 169.801C252.887 169.348 252.887 168.895 253.023 168.443V168.397C253.521 166.813 255.877 166.768 256.556 168.216C256.783 168.669 256.874 169.167 256.919 169.665C257.372 172.743 257.598 175.957 258.278 178.99C258.369 179.261 258.414 179.578 258.504 179.85C258.776 180.936 259.184 181.977 259.637 183.018C261.041 186.006 262.899 188.767 264.484 191.619C265.164 192.841 265.798 194.063 266.297 195.376C266.931 196.915 267.384 198.545 267.656 200.174C268.063 201.985 268.199 204.067 267.882 206.014Z" fill="#966C00"/>
<path d="M263.261 217.602C262.265 219.911 261.313 222.265 260.317 224.573C259.501 226.474 258.64 228.466 257.01 229.824C255.65 230.956 253.476 231.137 252.615 229.281C248.583 226.882 244.914 223.939 241.697 220.59C240.972 219.82 240.972 218.643 241.697 217.919C242.422 217.195 243.147 216.425 243.872 215.701C243.826 215.248 243.962 214.75 244.37 214.298C246.091 212.351 247.813 210.36 249.534 208.413C251.301 211.129 253.521 213.619 256.239 215.248C258.414 216.471 260.77 217.195 263.261 217.602Z" fill="#784F00"/>
<path d="M267.882 206.014C267.792 206.647 267.656 207.281 267.474 207.915C267.112 209.092 266.614 210.223 266.07 211.31C265.209 210.948 264.394 210.495 263.578 210.042C262.491 209.363 261.54 208.639 260.588 207.87C261.857 208.368 263.261 208.549 264.62 208.322C265.119 208.232 265.617 208.096 266.115 207.87C266.886 207.507 267.474 206.783 267.882 206.014Z" fill="#784F00"/>
<path d="M470.661 166.542C453.173 186.64 433.512 204.928 412.129 220.952C402.162 228.421 391.787 235.392 381.096 241.865C381.096 241.865 381.186 242.001 381.322 242.272C394 270.926 405.378 319.5 405.741 338.599C405.514 338.916 405.378 339.188 405.378 339.324C405.288 347.834 397.586 348.83 389.839 349.916C377.653 351.591 365.33 352.496 353.008 352.677C345.623 352.768 338.239 352.587 330.854 352.179C326.822 351.953 318.486 352.768 316.267 348.377C315.949 347.743 315.632 347.109 315.315 346.521C314.59 346.159 314 345 313.5 344C307.113 333.355 300.685 315.727 296.877 303.835C296.242 301.798 295.608 299.761 294.974 297.86C294.566 296.592 294.159 295.37 293.751 294.238C292.664 291.024 291.667 288.399 290.897 286.86C290.398 285.864 287.772 280.455 287.5 280.5C284.872 281.315 283.628 281.321 281 282C280.275 282.181 279.505 282.362 278.78 282.543C264.238 285.938 248.36 286.22 233.5 284.5C220.029 282.988 198 280.5 193.041 270.926C192.09 266.807 193.223 262.371 195.307 258.659C199.927 250.375 207.946 242.861 214.787 236.433C223.666 228.149 233.361 220.816 243.056 213.528C243.736 213.03 244.551 212.759 245.367 212.714C248.719 215.022 251.755 217.738 255.198 219.956C256.783 220.997 258.459 221.993 260.136 222.898C262.99 229.055 257.236 240.552 252.343 243.585C252.253 243.63 252.162 243.676 252.117 243.721C251.981 243.812 251.89 243.857 251.755 243.902C251.8 243.902 251.8 243.902 251.845 243.857C253.204 243.449 259.954 243.314 262.174 243.087C265.346 242.77 268.471 242.137 271.597 241.593C273.681 241.231 275.765 240.914 277.849 240.733C282.38 240.326 287.046 239.602 291.214 237.791C294.113 236.524 297.239 231.952 300.229 231.68C305.802 231.137 311.329 229.869 316.357 227.425C321.386 224.981 325.871 221.314 328.906 216.606C329.405 216.516 329.903 216.425 330.401 216.38C330.854 215.746 329.676 215.862 330.401 215.5C365 213.528 398.5 177 461.192 147.575C463.14 151.785 465.088 156.04 467.127 160.205C467.308 160.521 470.57 166.542 470.661 166.542Z" fill="#FF7474"/>
<path d="M384.629 432.979C374.979 450.407 364.831 467.563 354.14 484.357C353.687 485.036 353.234 485.805 353.234 486.575C346.665 484.764 340.051 483.361 333.3 482.32C342.497 477.929 349.927 470.596 357.039 463.308C366.553 453.576 376.021 443.572 384.629 432.979Z" fill="#F83939" fill-opacity="0.1"/>
<path d="M405.741 338.508C405.514 338.825 405.378 339.097 405.378 339.233C405.288 347.743 397.586 348.739 389.839 349.825C377.653 351.5 365.33 352.405 353.007 352.586C345.623 352.677 338.239 352.496 330.854 352.088C326.822 351.862 318.486 352.677 316.266 348.286C315.949 347.652 315.632 347.018 315.315 346.43C314.59 346.068 313.911 345.66 313.276 345.162C316.855 345.932 320.57 346.158 324.195 345.751C327.185 345.389 330.084 344.665 333.029 344.031C343.086 341.858 353.46 341.179 363.699 341.949C366.463 342.175 368.818 342.809 371.582 342.899C381.458 343.216 391.515 343.488 400.893 340.455C402.524 339.866 404.155 339.233 405.741 338.508Z" fill="white"/>
<path d="M271.598 241.503C259.411 249.787 244.28 253.544 229.465 253.227C233.135 252.367 236.714 251.235 240.248 249.832C244.234 248.248 248.04 245.984 251.845 243.766C253.204 243.359 259.955 243.223 262.174 242.997C265.3 242.635 268.472 242.046 271.598 241.503Z" fill="#FFB0B0"/>
<path d="M288.281 282.251C287.782 281.255 287.374 280.757 287.103 280.802C284.475 281.617 281.847 282.341 279.22 283.02C278.495 283.201 277.725 283.382 277 283.563C279.22 281.888 281.304 279.987 282.482 277.498C284.158 273.967 283.75 269.848 283.252 266C285.155 271.341 286.831 276.773 288.281 282.251Z" fill="#FFB0B0"/>
<path d="M381.096 241.819C381.096 241.819 381.186 241.955 381.322 242.227C380.688 241.593 380.099 240.778 379.465 240.145C376.339 236.795 373.168 233.536 369.951 230.277C373.485 230.82 377.064 231.363 380.597 231.272C385.807 231.091 390.836 229.552 395.729 227.742C401.256 225.705 406.692 223.351 412.129 220.952C402.162 228.421 391.787 235.392 381.096 241.819Z" fill="#FFB0B0"/>
<path d="M327.275 216.198C325.644 220.997 320.117 224.527 315.723 226.519C313.458 227.56 311.011 228.285 308.565 228.782C306.073 229.28 302.766 230.095 300.41 228.964C298.19 227.968 296.288 231.227 298.508 232.223C301.498 233.581 304.624 233.264 307.795 232.766C311.011 232.268 314.137 231.317 317.082 230.005C322.7 227.56 328.906 223.215 330.945 217.194C331.715 214.886 328.045 213.89 327.275 216.198Z" fill="#FFB0B0"/>
<path d="M260.906 220.77C256.33 217.692 251.89 214.433 247.632 210.993C245.729 209.499 243.011 212.17 244.959 213.664C249.489 217.285 254.201 220.77 259.003 224.03C260.996 225.433 262.899 222.128 260.906 220.77Z" fill="#FFB0B0"/>
<path d="M472.744 164.505C469.528 158.62 466.356 152.735 463.23 146.805C462.098 144.633 458.791 146.579 459.969 148.707C463.095 154.636 466.266 160.566 469.482 166.406C470.66 168.579 473.922 166.632 472.744 164.505Z" fill="#FFB0B0"/>
<path d="M388 259.5C371.227 268.351 354.163 276.415 336.608 283.691C323.153 289.259 309.335 294.736 295.019 297.723C294.611 296.456 294.204 295.234 293.796 294.102C299.64 292.925 305.394 291.25 311.057 289.394C330.175 283.057 348.794 274.773 366.916 265.992C373.55 262.801 380.147 259.459 386.637 256C387 257 387.5 258.5 388 259.5Z" fill="#9F1D00"/>
<path d="M392 272.217C376.983 279.819 361.562 286.59 345.804 292.427C334.614 296.592 323.288 300.258 311.827 303.518C307.251 304.785 302.63 306.143 297.964 307.229C297.601 306.053 297.239 304.83 296.876 303.699C303.355 302.16 309.743 300.213 315.994 298.357C338.465 291.748 360.437 283.284 381.549 273.144C384.717 271.641 387.839 270.093 390.949 268.5C391 269 392 271.5 392 272.217Z" fill="#9F1D00"/>
<path d="M396.667 289C382.007 295.407 366.992 301.001 351.739 305.781C335.158 310.941 318.26 315.105 301.18 318.229C300.863 317.052 300.501 315.83 300.138 314.607C306.752 313.385 313.367 312.027 319.936 310.488C343.992 304.92 367.595 297.27 390.337 287.629C392.133 286.866 393.928 286.094 395.719 285.308C396 286 396.667 288 396.667 289Z" fill="#9F1D00"/>
<path d="M400.242 303C384.723 310.043 368.664 315.903 352.237 320.492C339.824 323.978 327.185 326.694 314.409 328.64C311.781 329.042 309.152 329.443 306.5 329.797C305.867 328.64 305.5 327.5 305 326.238C309.668 325.634 314.3 324.893 318.894 324.114C344.037 319.768 368.728 312.48 392.195 302.431C394.636 301.392 397.076 300.309 399.5 299.197C400 300 400 302 400.242 303Z" fill="#9F1D00"/>
<path d="M317.309 172.426C319.347 171.611 323.606 171.747 326.505 172.019C326.777 168.262 326.686 164.414 326.233 160.612C325.735 156.266 324.92 151.604 322.971 147.62C321.884 145.357 320.434 143.365 318.713 141.69C317.807 141.102 316.855 140.649 315.859 140.242C312.144 138.838 307.704 139.834 304.669 142.414C303.174 143.637 301.996 145.221 301.135 146.941C300.229 148.797 299.686 150.789 299.504 152.826C299.187 156.809 300.184 160.793 301.905 164.369C303.129 166.904 304.714 169.303 306.889 171.068C310.332 173.829 313.412 174.01 317.309 172.426Z" fill="#443100"/>
<path d="M250 157.5C243.5 161.5 247 173 255.5 173C262.5 173 266 169 267 166C270.5 168 274 167 276.5 162.5C280 163.5 283 162.5 288 158.5C294 158.5 300 154 300 148C300.5 148.333 302.9 148.2 308.5 145C318.5 138 307 127 300 134.5C304 123.5 285.5 120.5 284.5 132.5C281 122.499 268.5 124.5 269.5 134.5C263 126.5 251 132.5 254.5 142.5C244 140 240.5 154.5 250 157.5Z" fill="#443100"/>
<path d="M313.322 171.475C316.81 170.389 320.933 172.652 322.065 176.319C322.881 178.899 322.292 181.706 321.431 184.286C320.661 186.504 319.619 188.677 318.124 190.397C316.584 192.117 314.5 193.384 312.28 193.52C311.691 193.565 311.057 193.52 310.513 193.294C309.426 192.841 308.656 191.755 308.112 190.623C306.662 187.545 305.847 182.566 306.436 179.125C306.979 175.911 310.422 172.381 313.322 171.475Z" fill="#966C00"/>
<path opacity="0.2" d="M295.88 135.172C292.301 134.267 288.45 134.855 285.052 136.213C282.742 137.164 280.567 138.477 278.121 138.929C276.173 139.291 274.043 139.156 272.458 140.287C272.141 140.513 271.869 140.74 271.778 141.102C271.552 141.736 272.005 142.415 272.594 142.732C273.183 143.003 273.907 143.003 274.542 142.913C278.03 142.505 281.247 140.876 284.644 139.834C287 139.11 289.492 138.703 291.938 138.929C294.385 139.156 296.831 140.061 298.643 141.736C299.232 142.324 299.776 142.958 300.455 143.456C301.135 143.954 301.95 144.316 302.766 144.135C305.801 143.501 302.902 139.744 301.814 138.658C300.274 136.892 298.145 135.715 295.88 135.172Z" fill="white"/>
<path opacity="0.2" d="M309.153 145.583C309.788 145.9 310.513 145.99 311.192 146.126C313.82 146.624 316.538 147.484 318.395 149.476C319.347 150.517 320.026 151.83 321.114 152.735C321.249 152.871 321.431 152.961 321.612 153.007C322.02 153.052 322.337 152.554 322.427 152.147C322.88 150.336 322.201 148.39 321.114 146.851C319.347 144.497 316.629 142.958 313.82 142.098C312.461 141.69 309.969 141.056 308.655 142.007C307.251 143.048 307.794 144.904 309.153 145.583Z" fill="white"/>
<path d="M287.192 195.791C285.247 196.987 282.056 197.386 280.709 195.044C279.911 193.649 280.31 191.954 281.407 190.858C282.305 189.961 283.552 189.513 284.799 189.363C282.953 189.812 280.959 191.506 281.806 193.599C282.604 195.492 285.297 196.937 287.192 195.791Z" fill="#784F00"/>
<path d="M273.428 181.391C271.932 181.64 270.486 181.988 269.089 182.487C268.74 182.636 268.341 182.736 267.992 182.885C267.244 183.184 266.496 183.533 265.798 183.932C265.748 183.982 265.648 184.031 265.549 184.081C265.399 184.181 265.199 184.281 265.1 184.33C265 184.38 265 184.38 265 184.38C265 184.38 265 184.33 265 184.231C265 184.081 265.05 183.932 265.199 183.732C265.848 182.736 267.294 182.088 268.341 181.59C268.541 181.49 268.74 181.391 268.989 181.341C269.738 181.092 270.535 180.892 271.333 180.842H271.483C271.982 180.793 272.78 180.743 273.228 180.942C273.278 180.942 273.428 181.241 273.428 181.391Z" fill="#110F42"/>
<path d="M279.113 187.768C277.617 188.018 276.171 188.366 274.774 188.865C274.425 189.014 274.026 189.114 273.677 189.263C272.929 189.562 272.181 189.911 271.483 190.31C271.433 190.36 271.333 190.409 271.234 190.459C271.084 190.559 270.885 190.659 270.785 190.708C270.685 190.758 270.685 190.758 270.685 190.758C270.685 190.758 270.685 190.708 270.685 190.609C270.685 190.459 270.735 190.31 270.885 190.11C271.533 189.114 272.979 188.466 274.026 187.968C274.226 187.868 274.425 187.768 274.675 187.719C275.423 187.469 276.221 187.27 277.018 187.22H277.168C277.667 187.171 278.465 187.121 278.913 187.32C278.963 187.37 279.113 187.619 279.113 187.768Z" fill="black"/>
<path d="M290.633 173.368C290.533 173.468 290.234 173.568 290.084 173.617C289.984 173.667 289.934 173.667 289.835 173.717C289.137 174.016 288.389 174.365 287.64 174.763C285.995 175.66 284.449 176.757 283.003 178.002C282.903 177.903 282.803 177.604 282.803 177.504C282.853 177.354 282.903 177.205 283.053 177.056C283.302 176.707 283.601 176.358 283.85 176.059L283.95 175.959C284.648 175.212 285.446 174.614 286.394 174.116C287.441 173.617 288.837 172.87 290.034 173.019C290.234 173.069 290.433 173.119 290.533 173.169C290.633 173.269 290.633 173.318 290.633 173.368Z" fill="#110F42"/>
<path d="M292.777 179.746C292.677 179.846 292.378 179.945 292.228 179.995C292.128 180.045 292.079 180.045 291.979 180.095C291.281 180.394 290.533 180.743 289.785 181.141C288.139 182.038 286.593 183.134 285.147 184.38C285.047 184.28 284.947 183.982 284.947 183.882C284.997 183.732 285.047 183.583 285.197 183.433C285.446 183.085 285.745 182.736 285.995 182.437L286.094 182.337C286.792 181.59 287.59 180.992 288.538 180.494C289.585 179.995 290.981 179.248 292.178 179.397C292.378 179.447 292.577 179.497 292.677 179.547C292.727 179.646 292.777 179.746 292.777 179.746Z" fill="black"/>
<path d="M276.52 189.762C276.869 190.858 276.57 192.004 275.822 192.253C275.074 192.502 274.176 191.805 273.827 190.659C273.478 189.562 273.777 188.416 274.525 188.167C275.223 187.918 276.121 188.665 276.52 189.762Z" fill="black"/>
<path d="M290.383 183.185C290.732 184.281 290.433 185.427 289.685 185.676C288.937 185.925 288.04 185.228 287.691 184.081C287.341 182.985 287.641 181.839 288.389 181.59C289.137 181.341 290.034 182.088 290.383 183.185Z" fill="black"/>
<path d="M289.524 182.515C288.876 182.615 288.976 183.612 289.624 183.512C290.272 183.462 290.172 182.466 289.524 182.515Z" fill="white"/>
<path d="M275.376 189.125C274.727 189.225 274.827 190.221 275.475 190.122C276.174 190.022 276.024 189.026 275.376 189.125Z" fill="white"/>
<path d="M277.586 203.428C278.391 205.618 279.643 207.495 281.164 208.97C281.477 209.283 281.835 209.596 282.149 209.864C285.19 212.323 288.948 213.217 292.393 211.965C295.122 210.937 297.135 208.747 298.164 205.931C298.253 205.707 298.343 205.484 298.387 205.26C299.282 202.4 299.237 199.047 297.985 195.784C297.851 195.382 297.672 195.024 297.493 194.622L277.138 202.176C277.317 202.668 277.451 203.025 277.586 203.428Z" fill="#711919"/>
<path d="M295.256 204.456C295.524 203.473 295.703 202.4 295.346 201.461C294.898 200.21 293.646 199.316 292.348 199.047C291.051 198.779 289.664 199.047 288.412 199.494C287.159 199.941 285.951 200.522 284.654 200.925C284.072 201.104 283.446 201.282 282.909 201.551C282.328 201.819 281.836 202.221 281.567 202.802C281.209 203.517 281.388 204.411 281.657 205.171C282.462 207.227 284.385 208.747 286.533 209.283C288.188 209.686 289.888 209.462 291.498 208.881C292.617 208.479 293.467 208.166 294.138 207.138C294.675 206.244 295.032 205.35 295.256 204.456Z" fill="#B53434"/>
<path d="M282.194 209.909C285.236 212.367 288.994 213.261 292.438 212.01C295.167 210.981 297.18 208.791 298.209 205.975C297.583 205.573 296.912 205.215 296.196 204.947C293.78 204.053 290.917 204.008 288.144 205.037C286.041 205.796 284.341 207.093 283.089 208.612C282.731 209.015 282.462 209.462 282.194 209.909Z" fill="#F37C7C"/>
<path d="M279.867 201.282C280.493 201.595 281.12 201.863 281.836 202.042C284.072 202.668 286.667 202.579 289.217 201.595C291.901 200.567 294.048 198.779 295.301 196.723C295.569 196.231 295.838 195.74 296.017 195.248L279.867 201.282Z" fill="white"/>
</g>
<g filter="url(#filter1_d_731_411)">
<path d="M68.9552 184.137C69.5895 190.294 73.8933 195.409 79.1485 197.536C85.8534 200.252 91.471 197.31 96.4997 192.512C89.0699 199.619 93.4191 210.347 101.121 214.873C104.201 216.684 110.181 217.997 114.576 216.684C117.475 215.824 119.65 213.877 119.831 210.166C119.604 213.877 120.103 217.77 121.96 220.939C127.668 230.581 140.036 227.503 146.333 220.758C148.055 218.902 149.459 216.639 150.003 214.059C149.55 216.186 153.718 220.079 155.122 221.03C157.342 222.523 159.97 223.112 162.552 222.976C167.943 222.704 173.153 219.943 176.777 215.552C178.816 213.063 183.392 204.869 181.126 201.158C183.392 204.869 186.699 209.215 191.093 209.079C191.999 209.034 192.86 208.898 193.676 208.672C200.743 206.544 202.827 196.631 202.691 189.207C202.646 188.121 202.102 186.537 201.332 185.767C204.73 188.528 209.215 189.705 213.201 188.438C217.279 187.17 220.631 183.187 221.175 178.524C221.582 174.677 219.544 168.566 215.466 167.932C212.975 167.525 210.392 168.294 207.855 168.113C204.956 167.887 202.102 167.253 199.384 166.167C192.905 163.632 187.831 158.969 183.754 153.22C177.276 144.077 173.289 132.126 170.254 121.625C169.302 118.365 168.442 115.061 167.173 111.938C166.72 110.806 166.222 109.719 165.633 108.633C161.737 101.617 151.86 101.119 144.521 100.078C135.642 98.8103 126.581 98.7197 117.883 100.802C114.123 101.707 110.453 103.02 107.01 104.785C103.25 106.687 103.567 103.292 100.441 106.234C100.305 106.37 100.305 106.822 100.215 107.003C100.124 107.185 99.9881 107.32 99.8069 107.456C99.4444 107.773 99.082 107.999 98.8102 108.407C98.2212 109.222 97.9947 110.308 97.8135 111.304C97.1793 114.744 97.0433 118.23 97.0887 121.715C97.0887 125.201 97.0433 128.686 97.1793 132.172C97.3152 136.336 97.1793 140.501 96.7262 144.575C95.5936 154.397 92.6942 165.714 83.8148 169.788C76.7021 172.821 67.9133 173.998 68.9552 184.137Z" fill="#39518F"/>
<path d="M114.531 216.729C117.43 215.869 119.605 213.923 119.786 210.211C119.559 213.923 120.058 217.816 121.915 220.984C127.623 230.626 139.991 227.548 146.288 220.803C148.01 218.947 149.414 216.684 149.958 214.104C149.505 216.231 153.673 220.124 155.077 221.075C157.297 222.569 159.925 223.157 162.507 223.021C167.898 222.75 173.108 219.988 176.732 215.598C178.771 213.108 183.347 204.915 181.081 201.203C183.347 204.915 186.654 209.26 191.048 209.125C191.954 209.079 192.815 208.943 193.63 208.717C193.766 207.857 193.857 206.952 193.902 206.046C194.31 196.088 188.149 187.442 182.667 179.475C177.729 172.323 173.108 164.764 169.801 156.48C167.264 150.188 166.72 139.097 161.193 135.205C158.656 133.439 155.711 132.805 152.857 131.991C150.139 131.221 147.421 130.225 144.657 130.316C139.674 130.497 135.325 134.254 132.425 138.871C129.571 143.443 127.895 148.875 125.947 154.081C122.051 164.447 116.796 174.179 113.76 184.952C110.861 195.183 110.182 206.997 114.531 216.729Z" fill="black" fill-opacity="0.3"/>
<path d="M216.327 15.7012C216.146 15.9728 216.01 16.2444 216.056 16.5613C216.146 17.0592 216.645 17.195 217.098 17.195C220.269 17.195 223.123 14.6601 226.294 13.8906C227.925 12.8042 229.375 11.2651 230.462 9.45445C230.598 9.27338 230.689 9.04705 230.825 8.82072C231.187 8.18699 231.459 7.46273 231.232 6.78373C231.096 6.33107 230.734 6.05947 230.326 5.8784C229.33 5.51627 228.288 6.0142 227.336 6.51213C225.162 7.64379 222.987 8.95652 221.039 10.5408C219.227 11.9894 217.641 13.6642 216.327 15.7012Z" fill="#FFE193"/>
<path d="M216.327 15.7013C216.146 15.9729 216.01 16.2445 216.056 16.5614C216.146 17.0593 216.645 17.1951 217.098 17.1951C220.269 17.1951 223.123 14.6602 226.294 13.8907C227.925 12.8043 229.375 11.2652 230.462 9.45459C229.556 9.72619 228.65 9.90725 227.744 10.0431C225.524 10.4052 223.304 10.4504 221.084 10.4957C219.227 11.9895 217.641 13.6644 216.327 15.7013Z" fill="#FFCE6F"/>
<path d="M226.928 16.2447C226.294 16.9237 225.252 18.1911 225.841 19.2775C226.475 20.4092 227.608 19.6849 228.378 19.1417C230.825 17.5121 233.497 16.2447 236.216 15.4751C237.575 15.0677 238.889 14.7961 240.248 14.4793C243.419 13.6645 246.545 12.5781 249.535 11.1748C249.807 11.039 250.124 10.9032 250.35 10.5864C250.758 9.99791 250.622 9.04732 250.169 8.54939C250.124 8.50412 250.078 8.45885 250.033 8.41359C249.58 8.00619 248.991 7.82512 248.448 7.73459C248.04 7.64406 247.632 7.59879 247.224 7.59879C245.095 7.50826 242.921 8.05146 240.837 8.63992C235.853 10.1337 230.779 12.1707 226.928 16.2447Z" fill="#FFE193"/>
<path d="M230.779 15.2487C236.895 12.0347 243.464 10.4504 249.897 8.45869C249.943 8.45869 250.033 8.41343 250.079 8.41343C249.626 8.00603 249.037 7.82496 248.493 7.73443C248.085 7.6439 247.677 7.59863 247.27 7.59863C246.771 7.68917 246.273 7.82496 245.775 7.9155C244.914 8.09656 244.098 8.27763 243.238 8.50396C242.196 8.82083 241.199 9.22822 240.202 9.68089C236.805 11.1294 233.543 12.5327 230.779 15.2487Z" fill="#FFCE6F"/>
<path d="M226.612 14.8414C226.34 15.113 226.113 15.3846 226.023 15.7467C225.751 16.6973 226.702 17.7385 227.427 18.2364C228.831 16.8331 230.417 15.6109 232.048 14.6151C237.077 11.4917 242.83 9.81684 248.312 8.14199C248.991 7.96092 249.807 7.50826 249.716 6.69346C249.716 6.42186 249.58 6.19553 249.444 6.01447C248.901 5.2902 248.176 4.92807 247.361 4.79227C246.5 4.65647 245.548 4.74701 244.688 4.88281C243.827 5.01861 242.966 5.1544 242.105 5.47127C240.157 6.15027 238.481 7.50826 236.669 8.63992C236.578 8.68518 236.488 8.73045 236.397 8.82098C233.09 10.8127 229.42 12.0349 226.612 14.8414Z" fill="#FFE193"/>
<path d="M233.361 11.9899C235.083 10.8583 236.759 9.7266 238.481 8.54967C239.341 7.96121 240.202 7.37275 241.108 6.92008C242.331 6.28635 243.645 5.78842 244.959 5.47156C245.639 5.29049 246.318 5.15469 246.998 5.01889C247.134 4.97363 247.269 4.92836 247.36 4.88309C246.499 4.7473 245.548 4.83783 244.687 4.97363C243.826 5.10943 242.966 5.24523 242.105 5.56209C240.157 6.24109 238.481 7.59908 236.668 8.73074C236.578 8.776 236.487 8.82127 236.397 8.9118C235.445 9.9982 234.494 11.0846 233.361 11.9899Z" fill="#FFCE6F"/>
<path d="M177.321 156.752L205.138 164.311L208.807 136.563L211.707 114.654C211.752 113.613 211.797 112.617 211.842 111.576C211.978 108.86 212.114 106.144 212.205 103.428C212.386 99.5348 212.567 95.6872 212.749 91.7943C212.975 87.3129 213.156 82.7862 213.383 78.3049C213.609 73.6877 213.836 69.1158 214.017 64.5439C214.198 60.3794 214.425 56.2601 214.606 52.0956C214.923 45.6678 215.059 39.1947 215.874 32.8121C215.92 32.269 216.01 31.771 216.101 31.2278C216.146 31.0015 216.146 29.8698 216.282 29.734C220.948 26.3843 225.298 22.5819 229.511 18.508C229.556 18.4627 229.647 18.3722 229.692 18.3269C230.1 17.9195 230.508 17.3763 230.462 16.7426C230.462 16.5162 230.372 16.2899 230.417 16.0636C230.462 15.8373 230.643 15.7015 230.779 15.5204C230.961 15.3846 231.096 15.2035 231.278 15.0677C231.368 14.9772 231.459 14.8867 231.595 14.7961C232.274 14.1624 232.954 13.5739 233.588 12.9402C233.588 12.9402 233.588 12.9402 233.633 12.8949C234.721 11.8991 235.763 10.9032 236.85 9.95262C237.258 9.54522 237.711 9.13783 238.164 8.7757C238.753 8.2325 239.387 7.64404 239.976 7.10084C240.293 6.78397 240.61 6.51238 240.882 6.10498V6.05971C240.927 6.01445 240.927 5.96918 240.927 5.92391C241.607 4.38485 240.293 2.61947 238.934 3.07213C238.481 3.20793 238.118 3.52479 237.711 3.79639C235.31 5.60705 232.999 7.73457 230.462 9.31889C230.236 9.45469 230.009 9.59049 229.783 9.77156C228.877 10.3148 227.925 10.7674 226.929 11.0843C224.029 12.0801 221.084 12.5328 218.185 13.3023C216.962 13.6192 215.739 13.9813 214.561 14.4793C213.111 15.0677 211.752 15.8373 210.438 16.7878C208.671 18.1006 207.267 19.6396 206.089 21.405C205.092 22.8988 204.322 24.4831 203.688 26.158C202.374 29.553 201.649 33.2195 201.015 36.7503C199.248 46.7995 197.074 56.8033 195.216 66.8525C194.219 72.2392 193.359 77.6259 192.453 83.0126L190.505 94.646C189.961 97.86 189.417 101.119 188.874 104.333C188.511 106.551 188.104 108.769 187.741 110.987C187.605 111.802 187.469 112.662 187.333 113.477L182.078 136.155L177.321 156.752Z" fill="#FFE193"/>
<path d="M209.26 28.0139C208.128 27.7875 207.086 27.5612 205.999 27.1538C205.228 26.8822 204.458 26.5201 203.733 26.0674C204.368 24.3926 205.183 22.763 206.134 21.3145C205.953 22.084 205.908 22.8535 206.044 23.623C206.134 24.1662 206.361 24.6642 206.588 25.1168C207.267 26.2938 208.173 27.3349 209.26 28.0139Z" fill="#FFCE6F"/>
<path d="M177.321 156.752L205.138 164.311L208.807 136.563C208.354 136.653 207.856 136.699 207.403 136.744C205.409 137.015 203.371 137.106 201.332 137.151C194.899 137.287 188.466 136.925 182.123 136.02L177.321 156.752Z" fill="#FFCE6F"/>
<path d="M123.863 144.847L127.805 162.501L137.001 203.648L171.296 202.335L164.047 171.916L160.695 157.974L123.863 144.847Z" fill="#FFE193"/>
<path d="M123.863 144.847L127.805 162.546C131.112 164.221 134.51 165.669 137.953 166.891C142.709 168.566 147.602 169.924 152.586 170.649C156.21 171.192 160.106 171.69 164.047 171.961L160.695 158.019L123.863 144.847Z" fill="#FFCE6F"/>
<path d="M110.77 139.867C108.686 140.954 107.372 143.308 107.236 145.661C107.055 148.015 107.916 150.369 109.185 152.361C113.171 158.517 121.779 161.188 128.529 158.381C129.163 158.11 129.798 157.793 130.115 157.204C130.387 156.706 130.341 156.163 130.296 155.62C130.024 153.719 128.937 152.044 127.759 150.505C125.267 147.246 122.141 144.756 119.332 141.814C117.067 139.369 114.123 138.147 110.77 139.867Z" fill="#FFE193"/>
<path d="M105.56 130.633C106.919 134.118 108.596 137.513 110.589 140.773C116.705 150.822 125.72 159.513 136.367 164.085C143.751 167.253 152.268 168.159 159.97 165.805C166.131 163.949 169.936 159.603 171.884 154.307C174.421 147.427 173.425 139.053 171.884 132.036C170.435 125.246 168.305 118.366 165.27 112.028C164.319 110.037 163.322 108.136 162.189 106.325C155.303 95.0536 143.706 87.5394 130.16 88.9426C121.054 89.8932 112.537 95.0083 107.463 102.613C101.574 111.395 101.845 120.991 105.56 130.633Z" fill="#FFE193"/>
<path d="M105.56 130.633C106.919 134.118 107.599 136.925 109.592 140.229C111.676 139.958 114.711 140.003 116.388 138.781C118.517 137.196 119.785 134.571 120.012 131.9C120.239 129.23 119.468 126.559 118.155 124.25C117.747 123.526 117.248 122.802 116.569 122.349C120.193 122.756 124.271 121.127 125.766 117.822C126.445 116.329 126.581 114.609 126.626 112.934C126.672 111.078 126.672 109.222 126.581 107.321C132.199 110.399 138.496 112.3 144.929 112.843C150.048 113.296 155.213 112.843 160.377 112.436C162.008 112.3 163.639 112.164 165.27 111.983C164.319 109.991 163.322 108.09 162.189 106.28C155.303 95.0082 143.706 87.494 130.16 88.8972C121.054 89.8478 112.537 94.9629 107.463 102.568C101.574 111.395 101.845 120.991 105.56 130.633Z" fill="#FFCE6F"/>
<path d="M65.6934 482.624L73.8027 504.85L85.1285 502.179L92.5583 500.414L103.748 497.743L105.968 497.2L136.095 490.048L170.661 481.855C170.661 480.633 170.616 479.41 170.48 478.188C169.529 469.587 165.361 461.575 159.607 455.102C156.753 451.888 153.491 449.082 150.003 446.547L113.534 462.164L95.7295 469.769L93.3284 470.81L83.407 475.065L74.0745 479.048L65.6934 482.624Z" fill="#FFE193"/>
<path d="M65.6934 482.625L73.8027 504.85L103.794 497.744C102.208 494.575 100.713 491.361 99.3538 488.102C96.998 482.489 95.0047 476.695 93.3737 470.81L65.6934 482.625Z" fill="#F2F2F2"/>
<path d="M94.9593 467.053C97.7681 476.921 100.622 486.834 105.288 495.933C105.832 497.019 106.421 498.105 107.01 499.147C102.525 500.459 97.904 501.41 93.3737 502.768C93.7361 502.677 89.8853 494.937 89.5682 494.213C86.6688 488.192 85.0379 481.583 83.4523 475.11C83.4069 474.974 82.9992 473.481 83.0445 473.435L94.9593 467.053Z" fill="white"/>
<path d="M49.9733 483.756C49.475 486.065 49.8374 488.464 50.1998 490.772C52.5103 505.348 54.8208 519.969 57.8561 534.454C58.9887 539.886 59.623 545.59 61.9787 550.66C62.4771 551.701 63.0207 552.742 63.8815 553.512C66.0107 555.503 69.182 554.734 70.4958 552.244C71.0847 551.158 71.3112 549.936 71.5377 548.759C71.6737 548.08 71.8096 547.401 71.9455 546.722C72.172 545.726 72.4438 544.685 72.7156 543.689C72.8062 543.372 72.8968 543.055 72.9874 542.693C74.2106 537.895 75.5244 533.142 76.7476 528.389C77.9708 523.591 79.194 518.838 80.7796 514.13C81.278 512.681 81.7763 511.233 82.32 509.83C83.2713 507.385 84.4945 504.896 85.1741 502.361C79.8283 491.904 76.3852 489.958 73.9841 478.505C73.8935 478.098 67.8682 477.872 67.2792 477.826C64.6063 477.555 61.9334 477.283 59.3058 477.057C58.6263 477.011 57.9467 476.966 57.3125 477.011C55.5909 477.102 54.0506 477.645 52.6462 479.003C51.3324 480.271 50.3811 481.945 49.9733 483.756Z" fill="#6B9C89"/>
<path d="M49.9733 483.756C49.475 486.064 49.8374 488.463 50.1998 490.772C52.5103 505.348 54.8208 519.969 57.8561 534.454C58.9887 539.886 59.623 545.59 61.9787 550.66C62.4771 551.701 63.0207 552.742 63.8815 553.511C66.0107 555.503 69.182 554.734 70.4958 552.244C71.0847 551.158 71.3112 549.935 71.5377 548.758C71.6737 548.079 71.8096 547.4 71.9455 546.721C72.172 545.726 72.4438 544.684 72.7156 543.689C72.172 543.462 71.6283 543.191 71.1753 542.874C69.3179 541.606 68.0494 539.66 66.9621 537.713C64.4251 533.096 62.6583 528.072 61.3445 522.957C58.7622 512.636 58.1279 501.953 57.7202 491.361C57.539 486.562 57.4031 481.764 57.2672 476.966C55.5456 477.056 54.0053 477.6 52.6009 478.958C51.3324 480.27 50.3811 481.945 49.9733 483.756Z" fill="#60937E"/>
<path d="M113.58 462.164C119.741 468.048 125.358 474.522 130.387 481.402C132.426 484.209 134.374 487.106 136.186 490.048L170.752 481.855C170.752 480.633 170.707 479.41 170.571 478.188C169.62 469.587 165.452 461.575 159.698 455.102C156.844 451.888 153.582 449.082 150.094 446.547L113.58 462.164Z" fill="#FFCE6F"/>
<path d="M86.6691 89.1235C86.9409 92.7448 88.9795 96.1398 91.7883 98.4936C92.2867 98.9463 92.9209 99.399 93.6458 99.8516C98.9916 103.337 109.14 106.958 112.311 100.304C114.485 95.7776 111.858 90.0288 108.46 85.7738C107.01 84.0084 105.425 82.5146 103.975 81.5187C100.305 78.9838 95.2767 77.6711 91.3806 79.7986C88.1188 81.6093 86.3972 85.4569 86.6691 89.1235Z" fill="#39518F"/>
<path d="M93.6001 99.8518C98.9459 103.337 109.094 106.959 112.265 100.304C114.44 95.7778 111.812 90.029 108.414 85.7739C107.327 88.8973 105.877 91.8849 103.522 94.1935C100.939 96.7284 97.5415 98.1317 94.2343 99.5349C94.0078 99.6707 93.8266 99.7612 93.6001 99.8518Z" fill="black" fill-opacity="0.3"/>
<path d="M42.634 31.3181C42.8605 31.5444 43.0871 31.7708 43.0871 32.0876C43.1324 32.5856 42.634 32.8572 42.2263 32.9477C39.1004 33.6267 35.7932 31.7708 32.5314 31.6802C30.7192 30.956 28.9524 29.779 27.5027 28.2852C27.3215 28.1042 27.1856 27.9231 27.0043 27.742C26.5513 27.1989 26.053 26.5199 26.1436 25.8409C26.1889 25.3882 26.4607 25.0261 26.8231 24.7997C27.6839 24.2113 28.8618 24.4829 29.9038 24.7545C32.2595 25.3882 34.6606 26.203 36.9258 27.3347C39.0097 28.2852 40.9578 29.598 42.634 31.3181Z" fill="#FFE193"/>
<path d="M42.6338 31.3183C42.8603 31.5446 43.0868 31.7709 43.0868 32.0878C43.1321 32.5857 42.6338 32.8573 42.226 32.9479C39.1001 33.6268 35.793 31.7709 32.5311 31.6804C30.719 30.9561 28.9522 29.7792 27.5024 28.2854C28.4538 28.3307 29.3599 28.3307 30.3113 28.2854C32.5311 28.1496 34.751 27.7422 36.9256 27.2896C39.0095 28.2854 40.9576 29.5981 42.6338 31.3183Z" fill="#FFCE6F"/>
<path d="M32.4407 34.1249C33.2109 34.6681 34.4793 35.6639 34.1169 36.8409C33.7092 38.1083 32.4407 37.6104 31.6252 37.2483C28.8617 36.1619 26.0076 35.5281 23.1535 35.3471C21.7491 35.2565 20.39 35.2565 18.9856 35.2113C15.7237 35.1207 12.4619 34.7133 9.20005 33.9891C8.88292 33.8985 8.5658 33.8533 8.29398 33.627C7.75034 33.1743 7.70503 32.1784 8.02216 31.59C8.06746 31.5447 8.06746 31.4542 8.11276 31.4089C8.47519 30.911 8.97353 30.5941 9.51717 30.413C9.9249 30.2772 10.2873 30.1414 10.6951 30.0056C12.779 29.4624 14.9989 29.5077 17.1734 29.6435C22.3833 30.0509 27.7744 30.911 32.4407 34.1249Z" fill="#FFE193"/>
<path d="M28.454 33.9436C21.7944 32.0877 15.0442 31.9972 8.33931 31.454C8.2487 31.454 8.2034 31.454 8.11279 31.454C8.47522 30.9561 8.97356 30.6392 9.5172 30.4581C9.92493 30.3223 10.2874 30.1865 10.6951 30.0507C11.1934 30.0507 11.7371 30.0507 12.2354 30.0055C13.0962 30.0055 13.9569 29.9602 14.8177 30.0507C15.905 30.1413 16.947 30.3223 18.0342 30.5487C21.6585 31.2277 25.1469 31.8614 28.454 33.9436Z" fill="#FFCE6F"/>
<path d="M32.4407 32.6764C32.7578 32.8575 33.0296 33.0838 33.2108 33.446C33.6639 34.306 32.939 35.5282 32.3954 36.2072C30.7191 35.1661 28.9523 34.306 27.1402 33.6723C21.5226 31.6806 15.5878 31.3185 9.87958 30.8658C9.15472 30.7753 8.24865 30.5037 8.15805 29.7341C8.11274 29.4625 8.20335 29.2362 8.29396 29.0099C8.65638 28.1951 9.29063 27.6971 10.0608 27.3803C10.8763 27.0634 11.8276 26.9276 12.6884 26.8823C13.5492 26.8371 14.4552 26.7918 15.3613 26.8823C17.3999 27.1087 19.348 28.1045 21.3413 28.7835C21.4319 28.8288 21.5226 28.8741 21.6585 28.8741C25.2374 30.1415 29.0882 30.5037 32.4407 32.6764Z" fill="#FFE193"/>
<path d="M25.1922 31.3183C23.2894 30.5488 21.3867 29.8245 19.4839 29.055C18.5326 28.6929 17.5359 28.2855 16.5392 28.0139C15.1801 27.6517 13.821 27.4707 12.4619 27.4254C11.7824 27.3801 11.0575 27.3801 10.3779 27.3801C10.242 27.3801 10.1061 27.3349 9.97021 27.3349C10.7857 27.018 11.737 26.8822 12.5978 26.8369C13.4586 26.7917 14.3646 26.7464 15.2707 26.8369C17.3094 27.0633 19.2574 28.0591 21.2508 28.7381C21.3414 28.7834 21.432 28.8287 21.5679 28.8287C22.7458 29.8245 23.9237 30.6846 25.1922 31.3183Z" fill="#FFCE6F"/>
<path d="M16.3581 26.9726C16.4034 27.0179 16.4034 27.0179 16.4487 27.0632L16.494 27.1084C16.8111 27.4706 17.2188 27.6969 17.5813 27.9232C18.3061 28.3306 19.031 28.738 19.7105 29.1907C20.2089 29.5076 20.7525 29.7792 21.2508 30.096C22.5193 30.8203 23.7425 31.5445 25.011 32.2688C25.011 32.2688 25.011 32.2688 25.0563 32.2688C25.8265 32.7215 26.6419 33.2194 27.4121 33.6721C27.548 33.7626 27.6386 33.8079 27.7292 33.8531C27.9104 33.9889 28.1369 34.0795 28.3182 34.2153C28.4994 34.3058 28.6806 34.4416 28.7712 34.6679C28.8618 34.849 28.8618 35.1206 28.8618 35.3469C28.9524 35.9807 29.4507 36.3881 29.9491 36.7502C29.9944 36.7955 30.085 36.8407 30.1756 36.886C35.2043 39.9641 40.233 42.7706 45.5335 45.0339C45.7147 45.1245 45.9412 46.2109 46.0318 46.4372C46.213 46.9351 46.3942 47.4331 46.5754 47.931C48.75 53.9967 50.2903 60.2434 51.9665 66.4902C53.0538 70.5189 54.1411 74.5024 55.2284 78.5311C56.4063 82.9672 57.6295 87.4033 58.8074 91.8394C59.9852 96.185 61.1631 100.531 62.341 104.876C63.3377 108.633 64.3797 112.345 65.3764 116.102C66.1012 118.728 66.7808 121.353 67.5056 123.979C67.7774 124.974 68.0493 125.97 68.3211 126.966L74.8448 144.937L85.4005 174.088L110.952 160.735L103.069 144.167L91.8335 120.538C91.5164 119.769 91.1993 118.954 90.8822 118.184C90.0214 116.102 89.2059 114.02 88.3452 111.938C87.122 108.905 85.8988 105.872 84.6756 102.839L80.2359 91.8846C78.1972 86.8148 76.1586 81.745 74.0746 76.7204C70.1332 67.305 65.8294 58.0254 61.9333 48.5647C60.5742 45.3055 59.0792 41.8653 57.0405 38.8324C56.0438 37.3386 54.9566 35.9354 53.6428 34.6679C52.1478 33.2194 50.4262 31.9972 48.4329 31.0919C46.9832 30.4582 45.4428 30.0055 43.9025 29.7339C42.634 29.5076 41.3655 29.417 40.097 29.3718C37.0617 29.236 34.0717 29.417 31.0364 29.1002C29.9944 28.9644 28.9524 28.738 27.9557 28.4212C27.6839 28.3306 27.4121 28.2401 27.1856 28.1496C24.3768 27.1537 21.6586 25.5694 18.9404 24.3019C18.4873 24.1209 18.0796 23.8945 17.6266 23.8493C16.2675 23.6229 15.3614 25.6147 16.3581 26.9726Z" fill="#FFE193"/>
<path d="M52.1929 41.7748C53.2348 41.3222 54.2315 40.8695 55.1829 40.2358C55.8624 39.7831 56.542 39.2852 57.1762 38.6967C56.1796 37.2029 55.0923 35.7997 53.7785 34.5322C54.1409 35.2112 54.3674 35.9808 54.3674 36.7503C54.3674 37.2935 54.2768 37.8367 54.1409 38.3346C53.7785 39.6926 53.0989 40.8695 52.1929 41.7748Z" fill="#FFCE6F"/>
<path d="M74.9805 144.892L85.5362 174.043L111.087 160.69L103.204 144.122C103.114 144.167 103.069 144.167 102.978 144.213C99.5802 145.571 96.0466 146.431 92.4223 146.748C90.4289 146.929 88.4356 146.974 86.4422 146.838C82.5914 146.521 78.786 145.706 74.9805 144.892Z" fill="#FFCE6F"/>
<path d="M88.9339 319.711C94.4156 319.167 99.9427 318.805 105.47 318.353C120.148 317.13 134.826 315.953 149.505 314.731C151.362 314.595 174.059 314.098 174.467 312.694C175.554 308.847 176.415 304.908 177.185 300.97C179.224 290.559 180.673 279.921 183.618 269.646C185.113 264.35 186.744 259.099 188.375 253.848C189.236 251.087 190.096 248.371 190.957 245.61C190.957 245.564 191.003 245.519 191.003 245.474C191.818 242.894 192.588 240.313 193.404 237.733C194.128 235.334 194.853 232.935 195.533 230.491C195.669 230.083 195.759 229.676 195.895 229.268C196.031 228.725 196.212 228.227 196.348 227.684C196.892 225.783 197.39 223.882 197.889 221.98C197.934 221.845 197.979 221.709 197.979 221.573C198.16 220.849 198.342 220.125 198.523 219.446C199.067 217.318 199.565 215.19 200.063 213.063C200.244 212.293 200.426 211.524 200.562 210.754C200.743 209.894 200.924 209.08 201.105 208.219C201.286 207.224 201.513 206.228 201.694 205.232C202.057 203.467 202.328 201.701 202.645 199.89C202.781 198.985 202.917 198.08 203.053 197.174C203.28 195.5 203.506 193.825 203.687 192.15C203.823 191.154 203.914 190.113 204.005 189.117C204.186 187.352 204.322 185.632 204.503 183.866C204.729 181.195 204.956 178.57 205.228 175.899C205.409 173.681 205.636 171.463 205.817 169.245C205.862 168.657 205.907 168.068 205.953 167.48C206.089 165.76 206.179 163.994 206.315 162.274C206.496 159.513 206.723 156.706 207.085 153.99C207.266 152.497 207.538 150.957 207.855 149.464C205.182 148.875 179.314 144.937 179.45 144.032C179.178 145.435 178.453 148.332 177.91 150.641C177.321 153.266 176.687 156.027 175.962 158.743C175.554 160.282 175.101 161.867 174.648 163.406C173.833 166.122 172.881 168.747 171.749 171.237C171.522 171.78 171.25 172.278 171.024 172.776C170.707 173.41 170.389 173.998 170.072 174.587C169.619 175.401 169.121 176.216 168.623 176.94C168.577 176.805 168.532 176.714 168.487 176.578C168.215 175.99 167.943 175.401 167.671 174.813C167.445 174.36 167.218 173.862 166.992 173.364C166.675 172.64 166.448 171.554 165.678 171.146C165.044 170.784 164.228 171.237 163.639 171.463C153.673 175.311 140.58 177.8 130.522 173.229C129.798 172.866 129.027 172.776 128.348 172.821C126.808 172.957 125.494 174.043 124.86 175.537C124.769 175.763 124.678 175.99 124.633 176.216C124.497 176.624 124.407 177.031 124.316 177.438L124.225 177.348C123.546 176.714 122.911 176.035 122.277 175.356C122.005 175.084 121.779 174.768 121.507 174.496C121.19 174.134 120.918 173.772 120.601 173.41C120.012 172.64 119.423 171.871 118.879 171.056C118.336 170.241 117.792 169.381 117.249 168.521C116.297 166.982 115.436 165.397 114.621 163.768C114.349 163.27 113.352 161.323 112.084 158.879C110.906 156.525 109.502 153.764 108.324 151.41C106.874 148.468 105.787 146.159 105.877 146.069C97.3151 153.221 86.9859 157.883 76.0225 160.011C76.702 161.867 77.3363 163.723 77.8799 165.579C78.6501 168.249 79.3296 170.965 79.9639 173.681C80.6434 176.578 81.323 179.521 82.0931 182.418C82.7727 185.088 83.5428 187.759 84.4942 190.339C84.6754 190.837 84.8566 191.335 85.0378 191.833C85.0831 191.969 85.1737 192.15 85.219 192.286C85.808 193.779 86.3969 195.273 87.0312 196.767C87.0312 196.812 87.0765 196.858 87.0765 196.858C87.6201 198.17 88.1638 199.438 88.7074 200.751C89.2511 201.973 89.7947 203.195 90.3383 204.417C90.3383 204.462 90.3836 204.508 90.3836 204.508C90.6102 205.006 90.8367 205.503 91.0632 206.001C91.4256 206.816 91.788 207.676 92.1958 208.491C93.0112 210.302 93.8267 212.158 94.6422 213.968C94.6875 214.104 94.7781 214.24 94.8234 214.376C94.914 214.557 94.9593 214.693 95.0499 214.874C95.2311 215.326 95.4576 215.779 95.6388 216.232C96.409 218.042 97.1791 219.853 97.904 221.618C97.9493 221.709 97.9493 221.799 97.9946 221.845C98.2211 222.388 98.4023 222.976 98.6289 223.52C99.5802 226.145 100.305 228.635 100.849 231.079C101.075 232.075 101.256 233.071 101.392 234.021C101.528 234.836 101.619 235.651 101.709 236.511C101.981 239.317 102.072 242.124 101.891 245.112C101.845 246.243 101.755 247.42 101.619 248.642C101.574 249.095 101.528 249.502 101.483 249.955C99.6255 265.346 97.7228 280.827 94.7328 296.036C94.5969 296.625 94.5063 297.213 94.3703 297.847C93.9626 300.156 93.5549 302.555 93.1471 304.999C92.1505 310.295 91.0179 315.456 88.9339 319.711Z" fill="#BADDD4"/>
<path d="M85.1738 192.376C85.7628 193.87 86.3517 195.364 86.986 196.858C86.986 196.903 87.0313 196.948 87.0313 196.948C87.5749 198.261 88.1185 199.528 88.6622 200.841C126.309 199.03 164.092 202.652 201.785 205.322C202.147 203.557 202.419 201.792 202.736 199.981C202.872 199.076 203.008 198.17 203.144 197.265C163.956 193.146 124.542 191.471 85.1738 192.376Z" fill="white"/>
<path d="M91.0181 206.137C91.3805 206.952 91.7429 207.812 92.1507 208.627C92.9661 210.438 93.7816 212.293 94.597 214.104C94.6423 214.24 94.7329 214.376 94.7783 214.511C95.9561 214.557 97.134 214.602 98.3119 214.647C131.655 216.322 165.225 223.022 198.614 219.446C199.157 217.318 199.656 215.19 200.154 213.063C200.335 212.293 200.516 211.524 200.652 210.754C192.77 211.75 184.841 212.158 176.913 212.112C148.146 212.112 119.65 206.861 91.0181 206.137Z" fill="white"/>
<path d="M97.8136 221.799C101.574 231.26 102.57 239.091 101.574 248.869C104.065 240.087 105.017 230.807 105.968 221.709C105.878 221.709 96.9075 216.594 96.0921 215.96C95.7296 215.643 95.3219 215.326 94.9595 215.009C95.9561 217.273 96.9075 219.536 97.8136 221.799Z" fill="#ACD1C6"/>
<path d="M97.9043 222.026C98.1308 222.569 98.312 223.158 98.5385 223.701C99.4899 226.326 100.215 228.816 100.758 231.26C101.529 231.441 102.253 231.577 103.024 231.758C117.294 234.7 131.791 236.058 146.334 237.009C161.963 238.005 177.729 238.458 193.404 237.733C194.129 235.334 194.854 232.935 195.533 230.491C195.669 230.083 195.76 229.676 195.896 229.268C192.498 229.45 189.055 229.585 185.657 229.676C171.296 230.038 156.889 229.45 142.573 228.408C128.439 227.413 114.259 225.828 100.441 222.614C99.5805 222.433 98.7651 222.252 97.9043 222.026Z" fill="white"/>
<path d="M101.846 245.293C119.106 249.412 136.775 251.766 154.488 252.852C165.769 253.577 177.095 253.848 188.421 253.758C189.281 250.951 190.187 248.19 191.048 245.383C162.824 245.746 134.419 244.071 106.784 237.869C105.062 237.507 103.386 237.1 101.665 236.647C101.936 239.499 101.982 242.351 101.846 245.293Z" fill="white"/>
<path d="M171.749 171.282C182.531 174.813 193.947 176.397 205.273 175.989C205.454 173.771 205.681 171.553 205.862 169.335C205.907 168.747 205.953 168.158 205.998 167.57C195.397 168.113 184.751 166.71 174.648 163.451C173.787 166.167 172.836 168.792 171.749 171.282Z" fill="white"/>
<path d="M175.962 158.788C185.793 161.459 196.077 162.274 206.361 162.364C206.542 159.603 206.768 156.797 207.131 154.081C197.255 154.035 187.378 153.311 177.955 150.731C177.321 153.311 176.687 156.072 175.962 158.788Z" fill="white"/>
<path d="M77.8345 165.623C78.6046 168.294 79.2842 171.01 79.9184 173.726C84.7206 172.64 89.3868 171.191 93.9172 169.064C100.169 166.167 106.194 162.681 111.993 158.924C110.815 156.57 109.411 153.809 108.233 151.455C102.706 155.076 96.9525 158.426 91.0178 161.233C86.7139 163.224 82.3195 164.628 77.8345 165.623Z" fill="white"/>
<path d="M82.0479 182.463C82.7274 185.133 83.4976 187.804 84.4489 190.384C90.6555 188.393 96.6356 185.903 102.344 182.553C108.097 179.158 113.534 175.175 118.834 171.101C117.249 168.792 115.844 166.303 114.576 163.813C109.275 167.932 103.884 171.87 98.1759 175.311C93.1019 178.434 87.6655 180.652 82.0479 182.463Z" fill="white"/>
<path d="M119.559 191.38C120.601 188.257 121.598 185.088 122.64 181.965C123.138 180.471 123.636 178.932 124.135 177.438C122.866 176.216 121.643 174.858 120.556 173.455C120.918 177.393 121.145 181.331 120.692 185.269C120.42 187.351 120.012 189.343 119.559 191.38Z" fill="#ACD1C6"/>
<path d="M168.895 178.072C169.212 178.797 169.619 179.521 169.937 180.109C171.522 182.961 173.334 185.677 175.192 188.393C176.596 188.71 178.001 189.072 179.405 189.344C187.424 191.018 195.533 192.014 203.733 192.241C203.869 191.245 203.959 190.204 204.05 189.208C204.231 187.442 204.367 185.722 204.548 183.957C194.31 183.731 184.116 182.282 174.24 179.611C172.473 179.159 170.661 178.615 168.895 178.072Z" fill="white"/>
<path d="M119.876 180.335C120.238 178.253 122.549 176.397 124.769 176.986C132.199 178.977 139.674 179.113 147.33 178.932C154.76 178.751 162.144 178.072 168.985 174.994C171.024 174.043 173.606 175.447 174.376 177.438C175.191 179.702 173.968 181.874 171.93 182.825C164.455 186.22 156.209 187.08 148.1 187.261C139.764 187.487 131.428 187.397 123.319 185.224C121.054 184.59 119.468 182.644 119.876 180.335Z" fill="white"/>
<path d="M168.441 176.669C168.532 177.121 168.713 177.619 168.894 178.072C169.212 178.796 169.619 179.52 169.936 180.109C171.522 182.961 173.334 185.677 175.192 188.393C177.049 191.063 178.952 193.734 180.719 196.45C182.757 199.573 184.569 202.742 185.929 206.137C186.472 207.45 186.925 208.853 187.288 210.256C186.971 208.898 186.653 207.586 186.336 206.228C185.566 203.104 184.705 200.026 183.437 197.084C183.256 196.586 183.029 196.088 182.803 195.635C181.851 193.598 180.673 191.652 179.586 189.705C179.541 189.615 179.45 189.479 179.405 189.388C177.593 186.175 175.826 182.961 174.195 179.656C173.062 177.438 171.975 175.175 170.933 172.866C170.208 174.36 169.393 175.763 168.532 177.031C168.532 176.895 168.487 176.804 168.441 176.669Z" fill="#ACD1C6"/>
<g opacity="0.5">
<path opacity="0.5" d="M93.0566 305.225C103.929 307.353 115.165 308.213 126.219 309.028C134.011 309.616 141.848 310.205 149.595 309.163C157.387 308.122 164.863 305.406 172.247 302.736C173.878 302.147 175.554 301.559 177.185 300.925C179.224 290.514 180.673 279.876 183.618 269.601C185.113 264.304 186.744 259.054 188.375 253.803C189.236 251.041 190.097 248.325 190.957 245.564C189.009 243.844 187.242 242.033 185.793 239.906C183.392 236.285 182.214 231.939 181.217 227.729C176.959 210.256 171.93 192.557 170.027 174.677C169.574 175.492 169.076 176.307 168.577 177.031C168.532 176.895 168.487 176.805 168.442 176.669C168.17 176.08 167.898 175.492 167.626 174.903C167.49 175.175 167.354 175.492 167.264 175.809C166.856 177.121 166.901 178.57 166.946 179.973C167.264 189.117 168.668 198.306 167.49 207.359C167.4 208.084 167.264 208.853 166.811 209.442C166.448 209.849 165.95 210.121 165.497 210.347C156.3 214.919 145.563 214.511 135.279 214.059C131.519 213.878 127.668 213.697 124.089 212.565C120.873 200.343 123.591 186.718 121.507 174.586C121.19 174.224 120.918 173.862 120.601 173.5C120.012 172.731 119.423 171.961 118.88 171.146C118.336 170.331 117.792 169.471 117.249 168.611C117.294 180.924 116.932 193.236 114.123 205.187C111.676 215.553 107.282 225.421 101.347 234.248C101.483 235.062 101.574 235.877 101.664 236.737C101.936 239.544 102.027 242.35 101.846 245.338C101.8 246.47 101.71 247.646 101.574 248.869C101.528 249.321 101.483 249.729 101.438 250.181C99.5803 265.572 97.6776 281.053 94.6876 296.263C94.5517 296.851 94.461 297.439 94.3251 298.073C93.8721 300.337 93.5097 302.781 93.0566 305.225Z" fill="#99C1B3"/>
</g>
<path d="M121.326 450.123C123.183 448.946 125.041 447.995 127.17 447.135C135.053 443.921 142.845 440.391 150.864 437.494C157.252 435.185 161.374 437.041 164.274 442.744C170.163 454.287 175.418 466.147 179.903 478.233C182.168 484.299 184.207 490.365 186.11 496.521C187.469 501.002 189.961 506.887 184.57 509.965C172.383 516.891 147.058 521.961 143.615 515.216C141.214 510.508 136.774 501.636 135.098 496.657C131.565 486.336 126.355 475.698 122.006 465.695C120.918 463.16 119.695 460.67 118.653 458.135C117.883 456.189 117.022 454.152 118.608 452.296C119.061 451.752 119.65 451.345 120.239 450.892C120.556 450.621 120.918 450.349 121.326 450.123Z" fill="#F78D0F"/>
<path d="M123.953 459.584C129.48 465.695 134.962 472.258 135.37 480.949C135.415 481.674 135.415 482.353 135.37 483.077C135.189 490.003 132.516 496.793 129.933 503.356C129.345 504.805 128.801 506.253 128.212 507.702C125.63 514.265 123.047 520.829 120.42 527.393C119.061 530.788 117.294 534.364 115.844 537.985C113.624 543.462 111.087 551.158 114.847 556.544C116.569 558.989 119.468 560.437 122.277 561.795C131.066 566.05 139.9 570.26 148.689 574.515C158.022 578.996 161.374 577.593 168.985 570.848C171.069 568.992 173.017 567.001 174.784 564.873C178.861 560.075 182.259 554.779 185.521 549.483C188.647 544.413 191.909 539.434 195.17 534.364C203.053 522.142 210.845 509.784 216.146 496.476C216.191 496.385 216.236 496.295 216.372 496.295C216.418 496.295 216.463 496.249 216.463 496.249C216.871 496.114 217.233 495.978 217.596 495.842C224.527 493.443 232.274 490.772 239.658 487.332C251.618 481.764 262.582 474.295 267.429 463.114C272.322 451.798 271.914 439.531 269.151 427.897C266.161 415.268 262.718 402.638 256.466 391.05C246.635 372.853 232.863 357.1 218.456 341.981C208.535 331.525 198.251 321.431 187.559 311.698C187.514 311.653 187.469 311.608 187.469 311.517C187.423 311.246 187.378 311.019 187.333 310.748C187.333 310.657 187.288 310.612 187.288 310.521C187.288 310.476 187.242 310.386 187.242 310.34C187.197 310.023 187.106 309.707 187.061 309.39C187.061 309.344 187.061 309.299 187.016 309.254C186.88 308.394 186.744 307.534 186.608 306.674C186.517 305.995 186.427 305.316 186.336 304.637C186.291 304.32 186.246 303.958 186.246 303.641C186.2 303.324 186.2 303.007 186.155 302.69V302.554C186.11 302.238 186.11 301.875 186.064 301.559C186.064 301.332 186.019 301.151 186.019 300.925C186.019 300.608 185.974 300.336 185.974 300.02C185.974 299.793 185.928 299.567 185.928 299.341C185.928 299.295 185.928 299.205 185.928 299.159C185.928 298.888 185.928 298.616 185.883 298.345C185.883 298.209 185.883 298.073 185.883 297.892C185.883 297.847 185.883 297.801 185.883 297.756C185.883 297.394 185.883 296.987 185.838 296.625C185.793 292.686 186.064 288.748 186.699 284.765C188.33 274.444 189.87 261.679 190.142 252.263C190.187 251.449 189.87 250.679 189.372 249.955C187.695 247.556 183.754 245.474 182.168 242.531C176.777 232.527 176.46 221.211 176.641 210.12C176.687 207.993 176.732 205.911 176.777 203.828C176.913 197.129 177.004 190.339 176.007 183.73C175.509 180.562 174.784 177.438 173.697 174.405C173.425 173.59 172.609 170.784 171.975 170.15C171.884 170.06 171.794 170.014 171.748 170.014C170.797 169.924 168.17 171.327 166.856 171.961C166.584 172.097 166.403 172.414 166.493 172.685C166.539 172.911 166.629 173.138 166.675 173.364C166.856 173.998 167.037 174.632 167.173 175.265C170.525 188.166 172.111 201.203 171.114 214.557C171.114 214.738 170.933 214.873 170.752 214.873C155.032 214.738 139.266 214.647 123.546 214.511C123.364 214.511 123.183 214.375 123.183 214.194C123.229 213.063 123.274 211.886 123.364 210.754C123.727 203.014 124.135 195.273 124.497 187.533C124.633 184.228 124.814 180.969 124.995 177.664C125.041 176.623 125.358 175.401 125.358 174.36C125.358 174.179 125.358 173.998 125.358 173.817C125.313 173.409 125.675 172.776 124.859 172.685C123.5 172.549 123.093 172.549 121.462 172.187C120.193 171.916 119.332 171.78 119.332 171.961V172.006C119.423 174.903 118.925 178.66 119.015 181.603C119.106 184.635 119.151 187.668 119.151 190.701C119.061 210.709 115.935 230.807 101.936 245.428C101.845 245.564 101.709 245.655 101.619 245.745C99.852 247.511 98.5835 247.918 97.4509 248.325C91.6521 261.453 92.83 277.341 92.4222 291.328C92.4222 291.736 92.4222 292.143 92.3769 292.505C92.3769 292.732 92.3769 292.958 92.3769 293.139C92.3769 293.592 92.3769 293.999 92.3316 294.406C92.3316 294.542 92.3316 294.723 92.3316 294.859C92.3316 294.995 92.3316 295.131 92.3316 295.267C92.3316 295.448 92.3316 295.583 92.2863 295.764C92.2863 295.991 92.241 296.217 92.241 296.443C92.0598 299.25 91.5162 302.011 89.9759 304.41C89.8399 304.637 89.704 304.863 89.5228 305.044C89.2057 305.497 88.8433 305.904 88.5261 306.357C88.4808 306.402 88.4355 306.447 88.4355 306.493L87.756 307.307C87.6654 307.398 87.5748 307.534 87.4842 307.67C87.2123 308.077 86.9405 308.484 86.714 308.937C86.4875 309.344 86.3063 309.707 86.1251 310.114C84.6754 313.056 83.6334 316.18 82.5914 319.303C82.3649 319.937 82.1837 320.57 82.0025 321.204C80.734 325.323 79.692 329.488 79.0124 333.743C78.2876 337.998 77.9251 342.344 77.8798 346.689C77.8345 350.175 78.0158 353.66 78.4235 357.1C81.4135 384.849 90.8366 412.144 105.787 435.683C111.268 444.238 117.294 452.205 123.953 459.584Z" fill="#39518F"/>
<path d="M88.6622 306.674C88.7075 306.629 88.7528 306.583 88.7528 306.538C89.1152 306.085 89.4776 305.678 89.7495 305.225C89.8854 304.999 90.0666 304.773 90.2025 304.592C90.2931 304.456 90.3837 304.275 90.4743 304.139C91.8334 301.785 92.2864 299.431 92.4677 296.625C92.4677 296.398 92.513 296.172 92.513 295.946C92.513 295.765 92.513 295.629 92.5583 295.448C92.5583 295.312 92.5583 295.176 92.5583 295.04C92.5583 294.905 92.5583 294.723 92.5583 294.588C92.5583 294.18 92.5583 293.773 92.6036 293.32C92.6036 293.094 92.6036 292.868 92.6036 292.687C93.4643 292.822 94.3704 293.003 95.2312 293.139C104.201 294.678 113.217 295.9 122.277 296.76C140.761 298.526 159.381 298.707 177.865 297.394C178.952 297.304 179.994 297.213 181.081 297.168C182.757 297.032 184.388 296.896 186.019 296.715C186.019 297.077 186.019 297.485 186.065 297.847C186.065 297.892 186.065 297.937 186.065 297.983C186.065 298.118 186.065 298.254 186.065 298.435C186.065 298.707 186.065 298.979 186.11 299.25C186.11 299.295 186.11 299.386 186.11 299.431C186.11 299.658 186.11 299.884 186.155 300.11C186.155 300.427 186.2 300.699 186.2 301.016C186.2 301.242 186.246 301.423 186.246 301.649C186.291 301.966 186.291 302.328 186.336 302.645V302.781C186.382 303.098 186.382 303.415 186.427 303.732C186.472 304.048 186.472 304.411 186.518 304.727C186.608 305.406 186.699 306.085 186.789 306.764C186.925 307.624 187.016 308.484 187.197 309.345C187.197 309.39 187.197 309.435 187.242 309.48C187.288 309.797 187.333 310.114 187.424 310.431C187.424 310.476 187.424 310.567 187.469 310.612C187.469 310.703 187.514 310.748 187.514 310.838C186.563 310.974 185.566 311.11 184.615 311.246C181.308 311.653 178.001 311.97 174.693 312.287C158.203 313.735 141.486 313.962 125.041 313.283C114.123 312.83 103.069 311.879 92.2411 310.159C90.5196 309.888 88.7528 309.571 87.0312 309.254C87.2578 308.801 87.5296 308.394 87.8014 307.987L88.6622 306.674Z" fill="white"/>
<path d="M208.082 409.564C218.592 428.44 225.207 449.806 222.851 471.081C221.9 479.637 219.544 488.056 216.554 496.249C216.962 496.114 217.324 495.978 217.686 495.842C224.618 493.443 232.365 490.772 239.749 487.332C241.289 467.732 237.529 447.86 228.876 430.07C226.249 424.638 223.168 419.432 219.861 414.317C206.043 392.816 189.191 373.849 168.94 357.417C183.211 374.03 197.526 390.734 208.082 409.564Z" fill="#6080D1"/>
<path d="M92.5586 294.588C93.3288 294.769 94.0989 294.904 94.8691 295.04C105.334 297.077 115.935 298.481 126.672 299.205C143.57 300.382 160.786 299.974 177.502 299.476C178.409 299.431 179.36 299.431 180.266 299.386C182.214 299.341 184.162 299.25 186.155 299.16C186.155 298.888 186.155 298.616 186.11 298.345C186.11 298.209 186.11 298.073 186.11 297.892C184.162 297.983 182.169 298.028 180.266 298.118C179.451 298.164 178.635 298.164 177.774 298.209C161.012 298.707 143.751 299.16 126.808 297.937C116.162 297.168 105.606 295.81 95.1862 293.773C94.3254 293.592 93.51 293.456 92.6492 293.275C92.5586 293.773 92.5586 294.18 92.5586 294.588Z" fill="#6080D1"/>
<path d="M87.6655 307.851C89.2511 308.122 90.7915 308.394 92.3771 308.62C101.71 310.114 111.178 311.201 120.692 311.925C138.722 313.283 156.799 313.237 174.648 311.789C175.328 311.744 176.007 311.653 176.687 311.608C180.266 311.291 183.799 310.929 187.378 310.521C187.378 310.476 187.333 310.386 187.333 310.34C187.288 310.024 187.197 309.707 187.152 309.39C187.152 309.345 187.152 309.299 187.106 309.254C183.074 309.707 179.042 310.114 174.965 310.476C147.557 312.694 119.695 311.653 92.6036 307.353C91.2445 307.126 89.9307 306.945 88.5716 306.674L87.6655 307.851Z" fill="#6080D1"/>
<path d="M160.74 419.614C161.012 419.432 161.42 419.478 161.601 419.749C162.643 421.198 163.549 422.556 164.41 423.823C164.591 424.095 164.546 424.502 164.229 424.683C164.138 424.729 164.047 424.774 163.911 424.774C163.685 424.774 163.458 424.683 163.322 424.502C162.462 423.235 161.556 421.922 160.514 420.428C160.378 420.202 160.423 419.795 160.74 419.614Z" fill="#6080D1"/>
<path d="M166.267 427.807C166.539 427.626 166.947 427.716 167.128 427.988C168.034 429.436 168.895 430.885 169.665 432.243C169.846 432.56 169.71 432.922 169.438 433.103C169.348 433.148 169.257 433.193 169.167 433.193C168.94 433.193 168.713 433.103 168.578 432.876C167.807 431.518 166.947 430.115 166.041 428.667C165.859 428.35 165.95 427.988 166.267 427.807Z" fill="#6080D1"/>
<path d="M154.806 412.461C154.624 412.19 154.67 411.782 154.941 411.601C155.213 411.42 155.621 411.466 155.802 411.737L156.708 413.005C157.388 413.91 158.022 414.815 158.702 415.766C158.883 416.037 158.837 416.445 158.566 416.626C158.475 416.716 158.384 416.716 158.249 416.762C158.022 416.762 157.841 416.671 157.705 416.49C157.025 415.585 156.391 414.634 155.712 413.729L154.806 412.461Z" fill="#6080D1"/>
<path d="M141.803 392.137C141.712 392.182 141.622 392.228 141.531 392.228C141.305 392.228 141.078 392.137 140.942 391.911C140.081 390.507 139.175 389.059 138.36 387.701C138.179 387.384 138.269 387.022 138.586 386.841C138.904 386.66 139.266 386.75 139.447 387.067C140.263 388.425 141.123 389.874 142.03 391.277C142.211 391.549 142.12 391.956 141.803 392.137Z" fill="#6080D1"/>
<path d="M171.16 436.362C171.477 436.226 171.839 436.317 172.02 436.634C172.791 438.173 173.47 439.666 174.104 441.16C174.24 441.477 174.104 441.839 173.787 441.975C173.742 442.02 173.651 442.02 173.606 442.02C173.334 442.065 173.062 441.884 172.972 441.658C172.338 440.21 171.658 438.716 170.888 437.222C170.752 436.905 170.888 436.498 171.16 436.362Z" fill="#6080D1"/>
<path d="M178.318 461.123C177.955 461.168 177.684 460.896 177.638 460.534C177.638 460.308 177.593 460.036 177.593 459.81C177.457 458.407 177.321 457.004 177.095 455.691C177.049 455.329 177.276 455.012 177.638 454.967C178.001 454.921 178.318 455.148 178.363 455.51C178.59 456.868 178.771 458.316 178.861 459.72C178.861 459.946 178.907 460.217 178.907 460.444C178.907 460.806 178.635 461.078 178.318 461.123Z" fill="#6080D1"/>
<path d="M176.868 451.345C176.823 451.345 176.823 451.345 176.777 451.345C176.46 451.39 176.188 451.164 176.098 450.892C175.735 449.353 175.237 447.769 174.739 446.185C174.648 445.868 174.784 445.506 175.146 445.37C175.463 445.279 175.826 445.415 175.962 445.777C176.505 447.362 176.958 448.991 177.366 450.576C177.412 450.938 177.185 451.3 176.868 451.345Z" fill="#6080D1"/>
<path d="M177.638 470.312C177.729 468.682 177.819 467.008 177.819 465.423C177.819 465.061 178.091 464.79 178.454 464.79C178.816 464.79 179.088 465.061 179.088 465.423C179.088 467.053 179.043 468.728 178.907 470.403C178.907 470.719 178.635 470.946 178.318 470.991C178.272 470.991 178.272 470.991 178.227 470.991C177.865 470.991 177.638 470.674 177.638 470.312Z" fill="#6080D1"/>
<path d="M177.14 475.201C177.185 474.839 177.502 474.612 177.865 474.658C178.227 474.703 178.454 475.02 178.408 475.382C178.182 477.011 177.91 478.641 177.593 480.316C177.548 480.587 177.321 480.814 177.049 480.814C177.004 480.814 176.913 480.814 176.868 480.814C176.506 480.769 176.324 480.406 176.37 480.09C176.687 478.415 176.959 476.785 177.14 475.201Z" fill="#6080D1"/>
<path d="M115.844 332.385C116.161 332.295 116.524 332.521 116.614 332.838C116.977 334.422 117.384 336.007 117.792 337.591C117.883 337.908 117.701 338.27 117.339 338.361C117.294 338.361 117.248 338.361 117.248 338.361C116.931 338.406 116.659 338.179 116.569 337.908C116.161 336.324 115.753 334.694 115.391 333.11C115.255 332.793 115.482 332.476 115.844 332.385Z" fill="#6080D1"/>
<path d="M118.336 341.936C118.653 341.846 119.015 342.027 119.106 342.344C119.559 343.883 120.057 345.467 120.601 347.052C120.691 347.368 120.556 347.731 120.193 347.866C120.148 347.866 120.102 347.912 120.057 347.912C119.785 347.957 119.514 347.776 119.423 347.504C118.879 345.92 118.381 344.336 117.928 342.796C117.792 342.389 117.973 342.027 118.336 341.936Z" fill="#6080D1"/>
<path d="M121.417 351.306C121.734 351.171 122.096 351.352 122.232 351.668C122.776 353.208 123.41 354.747 123.999 356.24C124.135 356.557 123.954 356.919 123.637 357.055C123.591 357.1 123.501 357.1 123.456 357.1C123.184 357.146 122.912 356.965 122.821 356.693C122.187 355.154 121.598 353.615 121.054 352.076C120.919 351.804 121.1 351.442 121.417 351.306Z" fill="#6080D1"/>
<path d="M113.987 322.653C114.349 322.607 114.667 322.834 114.712 323.196C114.938 324.78 115.256 326.41 115.527 328.039C115.573 328.402 115.391 328.718 115.029 328.764H114.984C114.667 328.809 114.395 328.583 114.304 328.266C113.987 326.636 113.715 325.007 113.443 323.377C113.443 323.06 113.67 322.698 113.987 322.653Z" fill="#6080D1"/>
<path d="M112.945 312.83C113.307 312.785 113.579 313.056 113.624 313.419C113.67 313.962 113.715 314.55 113.76 315.093C113.851 316.135 113.942 317.221 114.077 318.307C114.123 318.67 113.851 318.941 113.534 318.986C113.217 319.032 112.9 318.76 112.854 318.443C112.718 317.357 112.628 316.27 112.537 315.184C112.492 314.596 112.447 314.052 112.401 313.464C112.356 313.192 112.582 312.875 112.945 312.83Z" fill="#6080D1"/>
<path d="M125.086 360.496C125.403 360.36 125.766 360.496 125.902 360.813C126.536 362.306 127.216 363.8 127.895 365.294C128.031 365.611 127.895 365.973 127.578 366.109C127.533 366.154 127.442 366.154 127.351 366.154C127.08 366.154 126.853 366.018 126.717 365.792C126.038 364.298 125.358 362.759 124.679 361.265C124.588 360.994 124.769 360.632 125.086 360.496Z" fill="#6080D1"/>
<path d="M143.796 395.26C144.068 395.079 144.476 395.17 144.657 395.441C145.518 396.799 146.424 398.203 147.375 399.561C147.557 399.832 147.466 400.24 147.194 400.421C147.104 400.466 147.013 400.511 146.922 400.511C146.696 400.511 146.469 400.421 146.333 400.24C145.427 398.836 144.476 397.433 143.615 396.075C143.434 395.803 143.525 395.441 143.796 395.26Z" fill="#6080D1"/>
<path d="M129.209 369.459C129.526 369.323 129.888 369.413 130.07 369.73C130.795 371.179 131.519 372.672 132.29 374.121C132.471 374.438 132.335 374.8 132.018 374.981C131.927 375.026 131.882 375.026 131.791 375.072C131.565 375.072 131.293 374.981 131.157 374.755C130.387 373.306 129.662 371.812 128.937 370.319C128.756 370.002 128.892 369.64 129.209 369.459Z" fill="#6080D1"/>
<path d="M149.233 403.499C149.505 403.318 149.913 403.363 150.094 403.68C151 405.038 151.951 406.396 152.903 407.754C153.084 408.026 153.038 408.433 152.767 408.614C152.676 408.659 152.585 408.705 152.45 408.705C152.223 408.705 151.996 408.614 151.861 408.433C150.909 407.075 149.958 405.717 149.052 404.359C148.916 404.087 148.961 403.68 149.233 403.499Z" fill="#6080D1"/>
<path d="M133.739 378.24C134.057 378.059 134.419 378.195 134.6 378.512C135.37 379.915 136.186 381.364 137.001 382.812C137.182 383.129 137.047 383.491 136.775 383.672C136.684 383.718 136.594 383.763 136.503 383.763C136.276 383.763 136.05 383.672 135.914 383.446C135.098 381.997 134.283 380.549 133.513 379.146C133.286 378.783 133.422 378.421 133.739 378.24Z" fill="#6080D1"/>
<path d="M173.244 465.377C173.289 463.703 173.244 461.982 173.153 460.353C173.153 459.991 173.38 459.719 173.742 459.674C174.105 459.674 174.376 459.9 174.422 460.262C174.512 461.937 174.558 463.703 174.512 465.423C174.512 465.739 174.241 466.011 173.923 466.011C173.878 466.011 173.878 466.011 173.833 466.011C173.516 466.011 173.244 465.739 173.244 465.377Z" fill="#6080D1"/>
<path d="M172.927 470.402C172.972 470.04 173.289 469.814 173.606 469.859C173.969 469.904 174.195 470.176 174.15 470.538C174.014 472.213 173.788 473.933 173.516 475.653C173.47 475.924 173.244 476.151 172.972 476.196C172.927 476.196 172.881 476.196 172.836 476.196C172.474 476.151 172.247 475.834 172.338 475.472C172.564 473.752 172.791 472.077 172.927 470.402Z" fill="#6080D1"/>
<path d="M171.341 480.406C171.432 480.089 171.749 479.863 172.111 479.908C172.428 479.999 172.655 480.315 172.609 480.678C172.247 482.307 171.839 483.982 171.341 485.657C171.25 485.929 171.024 486.11 170.797 486.11C170.707 486.11 170.661 486.11 170.571 486.11C170.254 486.019 170.027 485.657 170.118 485.34C170.571 483.665 170.979 482.036 171.341 480.406Z" fill="#6080D1"/>
<path d="M158.112 422.601C158.384 422.42 158.792 422.465 158.973 422.737C160.015 424.23 160.967 425.634 161.873 426.946C162.054 427.218 161.963 427.625 161.691 427.806C161.601 427.852 161.51 427.897 161.42 427.897C161.193 427.897 160.967 427.806 160.831 427.625C159.97 426.313 159.019 424.909 157.977 423.461C157.75 423.235 157.841 422.827 158.112 422.601Z" fill="#6080D1"/>
<path d="M138.043 394.672C137.953 394.717 137.862 394.762 137.771 394.762C137.545 394.762 137.318 394.672 137.182 394.49L136.865 393.993C136.05 392.725 135.189 391.458 134.419 390.19C134.238 389.918 134.328 389.511 134.6 389.33C134.872 389.149 135.28 389.239 135.461 389.511C136.231 390.733 137.092 392.046 137.907 393.314L138.224 393.811C138.406 394.083 138.36 394.445 138.043 394.672Z" fill="#6080D1"/>
<path d="M151.951 415.268C151.725 414.996 151.815 414.589 152.087 414.408C152.359 414.181 152.767 414.272 152.948 414.543L154.126 416.082C154.76 416.942 155.394 417.757 155.983 418.617C156.21 418.889 156.119 419.296 155.847 419.477C155.757 419.568 155.621 419.568 155.53 419.613C155.304 419.613 155.122 419.523 154.986 419.342C154.352 418.482 153.718 417.667 153.129 416.807L151.951 415.268Z" fill="#6080D1"/>
<path d="M149.777 411.329C149.686 411.42 149.55 411.42 149.46 411.465C149.233 411.465 149.052 411.374 148.916 411.193C147.919 409.835 146.923 408.432 145.926 407.074C145.745 406.803 145.79 406.395 146.062 406.214C146.334 406.033 146.742 406.078 146.923 406.35C147.919 407.708 148.916 409.111 149.913 410.469C150.139 410.695 150.094 411.103 149.777 411.329Z" fill="#6080D1"/>
<path d="M166.901 436.633C166.811 436.679 166.766 436.679 166.675 436.724C166.448 436.724 166.177 436.633 166.086 436.407C165.316 435.004 164.5 433.51 163.594 432.016C163.413 431.699 163.504 431.337 163.821 431.156C164.138 430.975 164.5 431.066 164.682 431.383C165.588 432.876 166.448 434.415 167.219 435.819C167.309 436.09 167.219 436.452 166.901 436.633Z" fill="#6080D1"/>
<path d="M173.289 455.871C173.289 455.871 173.244 455.871 173.289 455.871C172.927 455.917 172.609 455.69 172.564 455.328C172.292 453.653 171.975 452.024 171.567 450.394C171.477 450.077 171.703 449.715 172.021 449.625C172.338 449.534 172.7 449.76 172.791 450.077C173.198 451.752 173.561 453.427 173.833 455.102C173.878 455.509 173.651 455.826 173.289 455.871Z" fill="#6080D1"/>
<path d="M170.933 445.958C170.888 445.958 170.842 446.003 170.797 446.003C170.525 446.049 170.253 445.868 170.163 445.596C169.619 444.012 168.985 442.427 168.305 440.888C168.169 440.571 168.305 440.209 168.623 440.073C168.94 439.938 169.302 440.073 169.438 440.39C170.118 441.975 170.797 443.559 171.341 445.189C171.431 445.505 171.25 445.868 170.933 445.958Z" fill="#6080D1"/>
<path d="M109.774 333.743C110.091 333.652 110.453 333.879 110.544 334.195C110.952 335.825 111.359 337.455 111.858 339.084C111.948 339.401 111.767 339.763 111.405 339.854C111.359 339.854 111.314 339.854 111.269 339.854C110.997 339.899 110.68 339.673 110.589 339.401C110.136 337.771 109.683 336.097 109.275 334.467C109.23 334.15 109.457 333.833 109.774 333.743Z" fill="#6080D1"/>
<path d="M115.935 353.162C116.252 353.027 116.615 353.208 116.75 353.524C117.385 355.064 118.019 356.648 118.699 358.232C118.834 358.549 118.699 358.911 118.381 359.047C118.336 359.092 118.245 359.092 118.2 359.092C117.928 359.138 117.657 358.956 117.566 358.73C116.886 357.146 116.252 355.561 115.618 354.022C115.437 353.66 115.618 353.298 115.935 353.162Z" fill="#6080D1"/>
<path d="M124.407 371.676C124.724 371.495 125.086 371.631 125.267 371.948C126.038 373.442 126.853 374.936 127.669 376.429C127.85 376.746 127.714 377.108 127.442 377.289C127.351 377.335 127.261 377.38 127.17 377.38C126.944 377.38 126.672 377.289 126.581 377.063C125.766 375.569 124.95 374.03 124.135 372.582C123.954 372.22 124.09 371.857 124.407 371.676Z" fill="#6080D1"/>
<path d="M112.538 343.566C112.855 343.475 113.217 343.656 113.308 343.973C113.806 345.558 114.35 347.187 114.939 348.771C115.075 349.088 114.893 349.45 114.576 349.586C114.531 349.586 114.486 349.632 114.44 349.632C114.168 349.677 113.897 349.496 113.806 349.224C113.217 347.595 112.673 345.965 112.175 344.381C111.994 344.018 112.175 343.656 112.538 343.566Z" fill="#6080D1"/>
<path d="M119.922 362.532C120.239 362.397 120.601 362.532 120.737 362.849C121.462 364.388 122.187 365.927 122.912 367.421C123.048 367.738 122.957 368.1 122.64 368.281C122.549 368.326 122.504 368.326 122.413 368.326C122.142 368.326 121.915 368.236 121.779 367.964C121.009 366.425 120.284 364.886 119.559 363.347C119.469 363.076 119.605 362.668 119.922 362.532Z" fill="#6080D1"/>
<path d="M106.557 313.645C106.92 313.599 107.191 313.871 107.237 314.233L107.282 314.912C107.418 316.361 107.554 317.854 107.735 319.303C107.78 319.665 107.554 319.982 107.191 319.982C107.191 319.982 107.191 319.982 107.146 319.982C106.829 320.027 106.512 319.756 106.467 319.439C106.285 317.99 106.104 316.496 106.014 315.003L105.968 314.324C105.968 313.961 106.24 313.69 106.557 313.645Z" fill="#6080D1"/>
<path d="M107.78 323.739C108.143 323.648 108.46 323.92 108.505 324.237C108.777 325.866 109.094 327.541 109.457 329.216C109.547 329.533 109.321 329.895 108.958 329.94C108.913 329.94 108.913 329.94 108.868 329.94C108.551 329.986 108.279 329.759 108.188 329.442C107.826 327.768 107.509 326.093 107.237 324.418C107.191 324.146 107.418 323.829 107.78 323.739Z" fill="#6080D1"/>
<path d="M140.218 397.84C140.49 397.659 140.897 397.704 141.079 398.021C141.985 399.379 142.981 400.783 143.978 402.186C144.159 402.457 144.114 402.865 143.842 403.046C143.752 403.091 143.661 403.136 143.525 403.136C143.298 403.136 143.072 403.046 142.936 402.865C141.939 401.416 140.943 400.013 140.037 398.655C139.855 398.429 139.901 398.021 140.218 397.84Z" fill="#6080D1"/>
<path d="M129.3 380.594C129.617 380.413 129.979 380.503 130.161 380.82C131.021 382.269 131.882 383.717 132.788 385.166C132.969 385.483 132.879 385.845 132.562 386.026C132.471 386.071 132.38 386.116 132.29 386.116C132.063 386.116 131.837 386.026 131.701 385.799C130.795 384.351 129.934 382.857 129.073 381.409C128.892 381.182 129.028 380.775 129.3 380.594Z" fill="#6080D1"/>
<path d="M119.967 363.619C123.682 361.446 126.853 357.915 129.163 353.434C130.975 349.949 132.289 345.784 133.331 340.397C135.189 331.027 135.642 321.431 134.69 311.925L133.422 312.061C134.328 321.431 133.875 330.891 132.063 340.171C131.021 345.422 129.752 349.451 127.985 352.846C125.811 357.101 122.775 360.45 119.287 362.533L119.967 363.619Z" fill="#6080D1"/>
<path d="M121.643 456.777C127.805 464.79 134.872 470.176 135.37 480.95C135.416 481.674 135.416 482.353 135.37 483.077C136.14 482.851 136.865 482.579 137.59 482.262C140.127 481.131 142.347 479.501 144.612 477.872C147.149 476.016 149.686 474.16 152.223 472.304C143.887 470.584 136.231 466.464 129.435 461.304C124.18 457.275 119.423 452.658 114.893 447.86C117.113 450.802 119.378 453.79 121.643 456.777Z" fill="#6080D1"/>
<path d="M171.25 217.816C176.596 217.363 177.366 225.692 171.975 226.145C166.629 226.643 165.859 218.314 171.25 217.816Z" fill="#6080D1"/>
<path d="M122.096 217.725C127.442 217.273 128.212 225.602 122.821 226.054C117.43 226.552 116.705 218.223 122.096 217.725Z" fill="#6080D1"/>
<path d="M168.713 254.572L165.089 289.744L112.583 288.296L121.054 252.399L168.713 254.572Z" fill="#6080D1"/>
<path d="M153.492 311.291C153.854 311.246 154.126 311.517 154.171 311.88C154.624 316.904 156.21 321.793 157.75 326.501L161.284 337.364C163.821 345.15 166.675 353.977 172.564 360.405C172.972 360.767 173.335 361.084 173.697 361.446C174.105 360.315 174.603 359.183 175.101 358.142C175.373 357.553 175.69 356.92 175.917 356.331C177.14 353.479 177.865 350.809 178.544 347.731C171.794 336.595 164.818 325.097 161.692 312.151C161.601 311.834 161.827 311.472 162.145 311.382C162.462 311.291 162.824 311.517 162.915 311.834C165.995 324.69 172.972 336.188 179.722 347.278C179.813 347.414 179.813 347.595 179.813 347.731C179.088 350.99 178.318 353.751 177.049 356.784C176.778 357.418 176.461 358.051 176.189 358.64C175.509 360.043 174.92 361.356 174.558 362.804C174.512 363.031 174.331 363.212 174.105 363.257C174.059 363.257 174.059 363.257 174.014 363.257C173.833 363.257 173.606 363.212 173.516 363.076C172.927 362.442 172.428 361.944 171.794 361.401C171.749 361.356 171.704 361.356 171.658 361.31C171.568 361.22 171.432 361.129 171.296 361.039C171.205 360.948 171.115 360.812 171.115 360.677C165.406 354.068 162.552 345.422 160.061 337.727L156.527 326.863C154.941 322.064 153.356 317.085 152.857 311.925C152.857 311.608 153.129 311.336 153.492 311.291Z" fill="#6080D1"/>
<path d="M144.884 147.789C145.699 150.007 146.968 151.908 148.508 153.402C148.825 153.718 149.188 154.035 149.505 154.307C152.585 156.797 156.391 157.702 159.879 156.434C162.643 155.393 164.681 153.175 165.723 150.323C165.814 150.097 165.904 149.871 165.95 149.644C166.856 146.747 166.811 143.352 165.542 140.048C165.406 139.641 165.225 139.278 165.044 138.871L144.431 146.521C144.612 147.019 144.748 147.381 144.884 147.789Z" fill="#D55454"/>
<path d="M162.779 148.83C163.051 147.834 163.232 146.747 162.869 145.797C162.416 144.529 161.148 143.624 159.834 143.353C158.52 143.081 157.116 143.353 155.847 143.805C154.579 144.258 153.356 144.846 152.042 145.254C151.453 145.435 150.819 145.616 150.275 145.887C149.686 146.159 149.188 146.566 148.916 147.155C148.553 147.879 148.735 148.784 149.006 149.554C149.822 151.636 151.77 153.175 153.945 153.718C155.621 154.126 157.342 153.9 158.973 153.311C160.106 152.904 160.967 152.587 161.646 151.546C162.19 150.64 162.552 149.735 162.779 148.83Z" fill="#B53434"/>
<path d="M149.55 154.352C152.631 156.842 156.436 157.747 159.925 156.479C162.688 155.438 164.727 153.22 165.769 150.368C165.135 149.961 164.455 149.599 163.73 149.327C161.284 148.422 158.384 148.377 155.576 149.418C153.446 150.187 151.725 151.5 150.456 153.039C150.094 153.447 149.822 153.899 149.55 154.352Z" fill="#F37C7C"/>
<path d="M147.194 145.616C147.829 145.933 148.463 146.204 149.188 146.385C151.453 147.019 154.08 146.929 156.663 145.933C159.381 144.892 161.556 143.081 162.824 140.999C163.096 140.501 163.368 140.003 163.549 139.505L147.194 145.616Z" fill="white"/>
<path d="M140.218 129.953C138.859 130.134 137.907 131.357 138.043 132.669C138.224 134.027 139.448 134.978 140.761 134.842C142.121 134.661 143.072 133.439 142.936 132.126C142.8 130.768 141.577 129.772 140.218 129.953Z" fill="white"/>
<path d="M159.401 128.498C160.243 127.442 160.068 125.904 159.012 125.063C157.955 124.222 156.416 124.396 155.574 125.452C154.732 126.507 154.906 128.045 155.963 128.887C157.019 129.728 158.559 129.554 159.401 128.498Z" fill="white"/>
<path d="M142.981 131.131C143.117 132.308 142.256 133.394 141.078 133.53C139.9 133.666 138.813 132.805 138.677 131.629C138.541 130.452 139.402 129.365 140.58 129.229C141.758 129.094 142.845 129.954 142.981 131.131Z" fill="#24404C"/>
<path d="M159.789 125.472C159.925 126.649 159.064 127.736 157.886 127.872C156.708 128.007 155.621 127.147 155.485 125.97C155.349 124.793 156.21 123.707 157.388 123.571C158.565 123.435 159.653 124.296 159.789 125.472Z" fill="#24404C"/>
<path d="M162.688 109.855C159.018 110.308 155.893 112.164 153.763 114.88L138.224 119.542C136.639 119.135 134.917 118.999 133.196 119.226C125.449 120.131 119.922 127.192 120.828 134.888C121.734 142.628 128.801 148.151 136.503 147.245C144.204 146.34 149.777 139.279 148.871 131.583C148.689 130.044 148.236 128.596 147.647 127.283L151.272 126.242C152.812 132.76 159.064 137.287 165.905 136.472C173.244 135.612 178.499 128.913 177.638 121.625C176.687 114.246 170.027 108.995 162.688 109.855ZM136.412 146.476C129.073 147.336 122.413 142.085 121.553 134.752C120.692 127.419 125.947 120.765 133.286 119.905C140.625 119.044 147.285 124.295 148.146 131.629C149.006 138.916 143.751 145.616 136.412 146.476ZM147.285 126.559C147.104 126.197 146.877 125.834 146.651 125.472L150.909 124.205C150.909 124.386 150.909 124.522 150.954 124.703C151 124.974 151.045 125.201 151.09 125.472L147.285 126.559ZM150.864 123.481L146.198 124.884C144.521 122.575 142.12 120.81 139.447 119.905L153.038 115.831C151.589 118.049 150.819 120.674 150.864 123.481ZM165.769 135.703C158.837 136.517 152.54 131.538 151.679 124.612C150.864 117.686 155.847 111.394 162.779 110.534C169.71 109.72 176.007 114.699 176.868 121.625C177.683 128.55 172.7 134.888 165.769 135.703Z" fill="#999999"/>
<path d="M151.543 137.74C151.77 137.106 152.268 136.563 152.948 136.291C153.627 136.02 154.443 136.065 155.077 136.427C155.711 136.789 156.21 137.513 156.21 138.238C156.21 138.962 155.802 139.686 155.168 139.958C155.621 139.46 155.711 138.826 155.621 138.283C155.53 137.74 155.168 137.287 154.669 137.061C154.216 136.789 153.627 136.699 153.084 136.834C152.54 136.97 151.996 137.287 151.543 137.74Z" fill="#B53434"/>
<path d="M157.841 124.839C157.252 124.929 157.343 125.834 157.931 125.744C158.52 125.699 158.43 124.793 157.841 124.839Z" fill="white"/>
<path d="M140.988 130.497C140.399 130.588 140.49 131.493 141.078 131.402C141.713 131.312 141.577 130.407 140.988 130.497Z" fill="white"/>
<path d="M135.098 125.563C134.917 125.563 134.781 125.472 134.691 125.336C134.645 125.155 134.736 124.929 134.917 124.884L139.991 123.209C140.172 123.164 140.399 123.254 140.444 123.435C140.49 123.616 140.399 123.843 140.218 123.888L135.144 125.563H135.098Z" fill="#24404C"/>
<path d="M153.899 120.176C153.718 120.176 153.582 120.086 153.492 119.905C153.446 119.724 153.537 119.497 153.718 119.452L158.565 117.958C158.747 117.913 158.973 118.004 159.019 118.185C159.064 118.366 158.973 118.592 158.792 118.637L153.945 120.131C153.945 120.176 153.899 120.176 153.899 120.176Z" fill="#24404C"/>
<path d="M116.207 144.394C118.064 144.666 119.786 145.526 121.1 146.884C120.375 146.34 119.378 146.567 118.563 146.884C116.614 147.608 114.621 148.83 113.987 150.822C113.715 149.735 113.987 148.513 114.666 147.608C115.346 146.703 116.433 146.114 117.566 146.024C116.705 146.069 115.572 145.616 114.712 145.571C114.213 145.526 113.715 145.526 113.217 145.526C112.945 145.526 111.314 145.526 111.314 145.526C111.314 145.526 112.809 144.62 113.081 144.575C114.123 144.303 115.165 144.258 116.207 144.394Z" fill="#FFCE6F"/>
<path d="M97.8133 124.929C98.0851 126.332 98.4475 127.736 98.8553 129.094C99.263 130.497 103.114 141.859 104.246 141.814C106.376 141.723 108.46 141.225 110.408 140.365C111.903 139.686 113.307 138.826 114.53 137.74C117.248 135.386 119.196 131.855 118.834 128.279C118.608 125.789 116.886 123.39 115.527 121.263C116.977 120.946 118.426 120.584 119.65 119.769C121.099 118.818 122.096 117.37 122.821 115.831C124.542 112.209 124.452 108 123.364 104.152C134.6 108.905 147.149 110.534 159.199 108.814C159.607 108.769 160.015 108.679 160.423 108.633C161.419 108.497 162.371 108.316 163.367 108.045C164.817 107.683 166.221 107.23 167.535 106.551C167.988 106.325 156.436 92.3826 154.805 91.0246C149.958 86.9959 143.932 84.3252 137.635 83.5557C126.943 82.243 115.255 85.2758 107.055 92.3826C101.891 96.8187 98.8099 102.93 97.5868 109.493C97.179 111.576 96.9978 113.748 96.9525 115.876C96.9525 116.057 96.9525 116.193 96.9525 116.374C96.9072 119.316 97.2243 122.168 97.8133 124.929Z" fill="#39518F"/>
<path opacity="0.2" d="M144.159 88.4897C140.218 87.0412 136.14 85.8643 131.927 85.638C127.714 85.4116 123.41 86.2264 119.876 88.4897C119.469 88.7613 119.106 89.0329 118.88 89.4403C118.653 89.8477 118.698 90.4362 119.061 90.7078C119.287 90.8889 119.605 90.8889 119.922 90.8889C121.598 90.8436 123.229 90.3909 124.86 90.0741C132.471 88.4897 140.58 89.7119 147.376 93.4238C148.1 93.8312 148.961 94.2838 149.777 94.0575C151.861 93.5143 149.822 91.6131 149.097 91.0247C147.647 89.8477 145.881 89.1235 144.159 88.4897Z" fill="white"/>
</g>
</g>
</g>
<defs>
<filter id="filter0_d_731_411" x="89.8901" y="104.774" width="475.962" height="558.996" filterUnits="userSpaceOnUse" color-interpolation-filters="sRGB">
<feFlood flood-opacity="0" result="BackgroundImageFix"/>
<feColorMatrix in="SourceAlpha" type="matrix" values="0 0 0 0 0 0 0 0 0 0 0 0 0 0 0 0 0 0 127 0" result="hardAlpha"/>
<feOffset dy="14"/>
<feGaussianBlur stdDeviation="17"/>
<feColorMatrix type="matrix" values="0 0 0 0 0 0 0 0 0 0 0 0 0 0 0 0 0 0 0.12 0"/>
<feBlend mode="normal" in2="BackgroundImageFix" result="effect1_dropShadow_731_411"/>
<feBlend mode="normal" in="SourceGraphic" in2="effect1_dropShadow_731_411" result="shape"/>
</filter>
<filter id="filter1_d_731_411" x="-26.1758" y="-17" width="331.358" height="738.332" filterUnits="userSpaceOnUse" color-interpolation-filters="sRGB">
<feFlood flood-opacity="0" result="BackgroundImageFix"/>
<feColorMatrix in="SourceAlpha" type="matrix" values="0 0 0 0 0 0 0 0 0 0 0 0 0 0 0 0 0 0 127 0" result="hardAlpha"/>
<feOffset dy="14"/>
<feGaussianBlur stdDeviation="17"/>
<feColorMatrix type="matrix" values="0 0 0 0 0 0 0 0 0 0 0 0 0 0 0 0 0 0 0.12 0"/>
<feBlend mode="normal" in2="BackgroundImageFix" result="effect1_dropShadow_731_411"/>
<feBlend mode="normal" in="SourceGraphic" in2="effect1_dropShadow_731_411" result="shape"/>
</filter>
<clipPath id="clip0_731_411">
<rect width="546" height="484" fill="white"/>
</clipPath>
</defs>
</svg>
